<svg width="173" height="48" viewBox="0 0 173 48" fill="none" xmlns="http://www.w3.org/2000/svg">
<path d="M8.09694 44.4468C10.6064 44.4468 12.6407 42.4125 12.6407 39.9031C12.6407 37.3937 10.6064 35.3594 8.09694 35.3594C5.58751 35.3594 3.55322 37.3937 3.55322 39.9031C3.55322 42.4125 5.58751 44.4468 8.09694 44.4468Z" fill="#FFB45A"/>
<path d="M21.3977 44.4468C23.9071 44.4468 25.9414 42.4125 25.9414 39.9031C25.9414 37.3937 23.9071 35.3594 21.3977 35.3594C18.8883 35.3594 16.854 37.3937 16.854 39.9031C16.854 42.4125 18.8883 44.4468 21.3977 44.4468Z" fill="#FF7B8E"/>
<path d="M34.6157 44.4468C37.1252 44.4468 39.1595 42.4125 39.1595 39.9031C39.1595 37.3937 37.1252 35.3594 34.6157 35.3594C32.1063 35.3594 30.072 37.3937 30.072 39.9031C30.072 42.4125 32.1063 44.4468 34.6157 44.4468Z" fill="#5AC0FF"/>
<path d="M29.4111 11.1536C29.1633 11.1536 28.9154 11.1536 28.6676 11.1536C27.6762 6.77513 23.7934 3.55322 19.1671 3.55322C17.9279 3.55322 16.7713 3.80106 15.6973 4.21413C15.6973 5.45332 15.6973 6.85774 15.6973 7.43604C16.9365 7.43604 19.3323 7.43604 20.4063 7.43604V12.0624C18.8366 12.0624 17.267 12.0624 15.6973 12.0624C15.6973 13.7146 15.6973 18.2583 15.6973 19.9106C17.1018 19.9106 19.0019 19.9106 20.5715 19.9106C20.4063 20.2411 20.2411 20.7367 20.1584 20.9846C19.2497 23.1325 17.1018 24.2891 14.7886 23.876C12.6407 23.463 11.071 21.6455 10.9058 19.3323C10.9058 18.6714 10.9058 18.0105 10.9058 17.3496C10.9058 16.3582 10.9058 13.0537 10.9058 11.9798C10.3275 11.9798 9.83182 11.9798 9.25352 11.9798C5.949 13.5494 3.55322 16.9365 3.55322 20.8193C3.55322 26.1892 7.93172 30.5677 13.3016 30.5677C13.3842 30.5677 29.4111 30.5677 29.4937 30.5677C34.8636 30.4851 39.1595 26.1892 39.1595 20.8193C39.1595 15.5321 34.781 11.1536 29.4111 11.1536Z" fill="#5633D1"/>
<path d="M56.9212 27.8416C55.9298 27.8416 55.3515 27.2633 55.3515 26.1067V20.3238H58.1604V17.7628H55.0211L54.5254 15.2844H52.1296V27.0155C52.1296 29.3286 53.2036 30.4026 55.2689 30.4026H58.0778V27.8416H56.9212Z" fill="#424C5E"/>
<path d="M65.7609 17.7628C61.7955 17.7628 59.8127 19.8281 59.8127 23.9588C59.8127 28.2547 62.1259 30.4026 66.6696 30.4026C68.2393 30.4026 69.6437 30.32 70.7177 30.0722V27.5112C69.4785 27.759 68.1567 27.8416 66.9175 27.8416C64.2738 27.8416 62.952 26.9329 62.952 25.198H71.3786C71.4612 24.7023 71.4612 24.124 71.4612 23.6283C71.5438 19.7455 69.5611 17.7628 65.7609 17.7628ZM63.0347 22.9674C63.1999 21.15 64.1086 20.2412 65.7609 20.2412C67.4958 20.2412 68.4045 21.15 68.4045 22.8848V22.9674H63.0347Z" fill="#424C5E"/>
<path d="M88.149 17.7628C86.7446 17.7628 85.4228 18.3411 84.101 19.4977C83.5227 18.3411 82.4487 17.7628 80.7964 17.7628C79.2268 17.7628 77.8224 18.3411 76.7484 19.5803L76.3353 17.7628H73.8569V30.4026H77.0788V21.6456C77.905 20.8195 78.8137 20.4064 79.7225 20.4064C80.879 20.4064 81.4573 21.15 81.4573 22.5544V30.4852H84.6792V21.7282C85.588 20.9021 86.4967 20.489 87.4055 20.489C88.6447 20.489 89.3056 21.15 89.3056 22.637V30.5678H92.5275V22.7196C92.5275 19.3325 91.0404 17.7628 88.149 17.7628Z" fill="#424C5E"/>
<path d="M100.871 17.7628C98.9714 17.7628 97.2365 17.928 95.5842 18.2585V35.6898H98.8061V29.8243C99.6323 30.2374 100.541 30.4026 101.367 30.4026C105.333 30.4026 107.398 28.1721 107.398 23.7936C107.315 19.7455 105.167 17.7628 100.871 17.7628ZM101.285 27.759C100.376 27.759 99.5497 27.5112 98.7235 27.0981V20.489C99.3018 20.4064 100.045 20.3238 100.954 20.3238C103.019 20.3238 104.093 21.4804 104.093 23.711C104.176 26.4372 103.185 27.759 101.285 27.759Z" fill="#424C5E"/>
<path d="M112.933 13.1365H109.711V30.32H112.933V13.1365Z" fill="#424C5E"/>
<path d="M120.946 17.7628C119.542 17.7628 118.055 17.928 116.32 18.3411V20.9021C117.972 20.489 119.542 20.3238 120.946 20.3238C122.598 20.3238 123.425 20.9021 123.425 22.0587V23.0501C122.598 22.8848 121.69 22.8022 120.864 22.8022C117.229 22.8022 115.411 24.0414 115.411 26.6024C115.411 29.246 116.981 30.5678 120.037 30.5678C121.359 30.5678 122.598 30.1548 123.672 29.4113L124.829 30.5678H126.647V22.0587C126.564 19.0846 124.664 17.7628 120.946 17.7628ZM120.451 28.0894C119.129 28.0894 118.55 27.5112 118.55 26.4372C118.55 25.3632 119.294 24.8675 120.864 24.8675C121.772 24.8675 122.598 24.9502 123.425 25.1154V27.0981C122.433 27.759 121.442 28.0894 120.451 28.0894Z" fill="#424C5E"/>
<path d="M134.082 27.8416C133.09 27.8416 132.512 27.2633 132.512 26.1067V20.3238H135.321V17.7628H132.182L131.686 15.2844H129.29V27.0155C129.29 29.3286 130.364 30.4026 132.43 30.4026H135.238V27.8416H134.082Z" fill="#424C5E"/>
<path d="M142.921 17.7628C138.956 17.7628 136.973 19.8281 136.973 23.9588C136.973 28.2547 139.286 30.4026 143.83 30.4026C145.4 30.4026 146.804 30.32 147.878 30.0722V27.5112C146.639 27.759 145.317 27.8416 144.078 27.8416C141.434 27.8416 140.112 26.9329 140.112 25.198H148.539C148.622 24.7023 148.622 24.124 148.622 23.6283C148.704 19.6629 146.721 17.7628 142.921 17.7628ZM140.195 22.9674C140.36 21.15 141.269 20.2412 142.921 20.2412C144.656 20.2412 145.565 21.15 145.565 22.8848V22.9674H140.195Z" fill="#424C5E"/>
<path d="M154.322 13.1365H151.1V30.32H154.322V13.1365Z" fill="#424C5E"/>
<path d="M165.475 17.6802L162.335 26.7676L159.113 17.6802H155.726L160.6 30.4026C159.94 31.807 158.948 32.7984 157.544 33.4593L159.113 35.6072C161.179 34.6159 162.666 32.9636 163.575 30.733L168.779 17.6802H165.475Z" fill="#424C5E"/>
</svg>
