<svg xmlns="http://www.w3.org/2000/svg" width="945" height="728.104" viewBox="0 0 945 728.104">
  <g id="Group_1488" data-name="Group 1488" transform="translate(-11424 -4973)">
    <g id="place_holder" data-name="place holder" transform="translate(11424 4973)">
      <path id="Rectangle_2" data-name="Rectangle 2" d="M30,0H915a30,30,0,0,1,30,30V728.1a0,0,0,0,1,0,0H0a0,0,0,0,1,0,0V30A30,30,0,0,1,30,0Z" transform="translate(0)"/>
    </g>
    <path id="Rectangle_2_copy" data-name="Rectangle 2 copy" d="M30,0H914.6a30,30,0,0,1,30,30V86.531a0,0,0,0,1,0,0H0a0,0,0,0,1,0,0V30A30,30,0,0,1,30,0Z" transform="translate(11424 4973.014)"/>
    <g id="Group_1360" data-name="Group 1360" transform="translate(11085 122.705)">
      <circle id="Ellipse_1" data-name="Ellipse 1" cx="7.84" cy="7.84" r="7.84" transform="translate(441.545 4859.295)" fill="#d74665"/>
      <circle id="Ellipse_1_copy" data-name="Ellipse 1 copy" cx="7.84" cy="7.84" r="7.84" transform="translate(467.68 4859.295)" fill="#32bc86"/>
      <circle id="Ellipse_1_copy_2" data-name="Ellipse 1 copy 2" cx="7.84" cy="7.84" r="7.84" transform="translate(493.814 4859.295)" fill="#dfba32"/>
    </g>
    <path id="Rectangle_3_copy" data-name="Rectangle 3 copy" d="M5,0H914.39a5,5,0,0,1,5,5V694.559a0,0,0,0,1,0,0H0a0,0,0,0,1,0,0V5A5,5,0,0,1,5,0Z" transform="translate(11437 5006.545)" fill="#fff"/>
    <rect id="Rectangle_447" data-name="Rectangle 447" width="922" height="694" transform="translate(11437 5007)" fill="#1b2836"/>
    <path id="batman-tdk-1" d="M483.92,0S481.38,24.71,466,40.11c-11.74,11.74-24.09,12.66-40.26,15.07-9.42,1.41-29.7,3.77-34.81-.79-2.37-2.11-3-21-3.22-27.62-.21-6.92-1.36-16.52-2.82-18-.75,3.06-2.49,11.53-3.09,13.61S378.49,34.3,378,36a85.13,85.13,0,0,0-30.09,0c-.46-1.67-3.17-11.48-3.77-13.56s-2.34-10.55-3.09-13.61c-1.45,1.45-2.61,11.05-2.82,18-.21,6.67-.84,25.51-3.22,27.62-5.11,4.56-25.38,2.2-34.8.79C284.05,52.77,271.7,51.85,260,40.11,244.57,24.71,242,0,242,0H0S69.52,22.74,97.52,68.59c16.56,27.11,14.14,58.49,9.92,74.73C170,140,221.46,140,273,158.57c69.23,24.93,83.2,76.19,90,93.6,6.77-17.41,20.75-68.67,90-93.6,51.54-18.56,103-18.59,165.56-15.25-4.21-16.24-6.63-47.62,9.93-74.73C656.43,22.74,726,0,726,0Z" transform="translate(11533 5227)" fill="#fff"/>
  </g>
</svg>
