<svg width="335" height="219" viewBox="0 0 335 219" fill="none" xmlns="http://www.w3.org/2000/svg">
<path d="M164.371 63.5428C166.432 62.3528 168.971 62.3528 171.032 63.5428L232.518 99.0418C234.579 100.232 235.849 102.431 235.849 104.811V175.809C235.849 178.189 234.579 180.388 232.518 181.578L171.032 217.077C168.971 218.267 166.432 218.267 164.371 217.077L102.885 181.578C100.824 180.388 99.5538 178.189 99.5538 175.809V104.811C99.5538 102.431 100.824 100.232 102.885 99.0418L164.371 63.5428Z" fill="white"/>
<path d="M127.788 126.804C127.788 126.804 127.843 172.865 128.904 174.57C129.965 176.276 168.087 193.591 169.47 193.179L169.234 143.902L127.788 126.804Z" fill="#E54242"/>
<path d="M142.24 181.492C142.24 181.492 145.596 186.498 153.014 186.498V140.025L142.24 135.159V181.492Z" fill="#FFAE1F"/>
<path opacity="0.2" d="M153.014 147.787V140.025L142.24 135.159V144.743C145.792 145.895 149.376 146.939 153.014 147.787Z" fill="#FFAE1F"/>
<path d="M168.841 144.089L169.462 193.179C169.462 193.179 206.467 175.396 206.821 173.519C207.175 171.635 208.149 124.967 208.149 124.967L168.841 144.089Z" fill="#C13838"/>
<path d="M186.263 184.933C186.263 184.933 192.77 184.186 196.016 179.958L197.139 133.89L186.098 137.222L186.263 184.933Z" fill="#EF9926"/>
<path opacity="0.17" d="M196.817 147.164L197.139 133.89L186.098 137.222L186.145 150.987C189.737 149.796 193.297 148.542 196.817 147.164Z" fill="#EF9926"/>
<path d="M124.103 120.327C124.103 120.327 123.788 130.767 124.197 132.169C124.606 133.57 170.271 152.225 171.269 152.607C171.269 152.607 170.978 139.947 170.963 139.449C170.939 138.849 124.103 120.327 124.103 120.327Z" fill="#EF4B4B"/>
<path d="M170.963 139.449L171.269 152.607C171.269 152.607 210.326 136.887 210.9 134.995C211.182 134.053 212.063 122.18 210.601 122.219L170.963 139.449Z" fill="#D33C3C"/>
<path d="M170.963 139.449L210.601 122.219C210.601 122.219 168.99 106.328 167.002 106.375C165.045 106.413 124.103 120.327 124.103 120.327L170.963 139.449Z" fill="#E54242"/>
<path d="M143.576 113.779L189.422 131.422L190.287 144.751C190.287 144.751 196.346 145.389 199.418 140.819L198.64 127.412L152.417 110.851C152.417 110.851 145.957 110.898 143.576 113.779Z" fill="#FFAE1F"/>
<path d="M181.587 111.334C181.587 111.334 188.086 111.248 191.293 114.931L151.293 131.429L151.112 144.291C151.112 144.291 142.24 143.326 139.631 139.456L139.969 126.812L181.587 111.334Z" fill="#FFC91F"/>
<path d="M197.721 96.2841C181.116 78.7349 166.028 116.652 169.666 120.327C174.617 125.333 215.292 114.845 197.721 96.2841ZM170.782 119.385C170.13 118.513 183.686 85.89 194.192 99.5697C206.444 115.523 171.804 120.747 170.782 119.385Z" fill="#FFE424"/>
<path opacity="0.18" d="M199.513 98.4174C199.473 98.7678 199.434 99.1182 199.387 99.4685C198.97 102.443 197.87 104.864 196.676 107.379C196.448 108.539 195.921 109.606 195.183 110.587C195.002 110.953 194.766 111.21 194.499 111.396C189.1 117.212 175.851 119.642 171.898 119.587C171.065 119.712 170.216 119.774 169.352 119.805C169.43 120.015 169.54 120.194 169.666 120.327C174.428 125.138 212.165 115.64 199.513 98.4174Z" fill="#FFBB24"/>
<path d="M169.784 119.058C172.314 117.952 172.44 96.2842 160.739 101.688C148.354 107.402 166.342 120.553 169.784 119.058ZM161.823 104C169.745 99.305 169.918 118.069 169.423 118.373C168.645 118.847 152.59 109.473 161.823 104Z" fill="#FFE424"/>
<path opacity="0.18" d="M159.427 102.388C159.372 102.567 159.324 102.746 159.277 102.933C158.892 104.483 158.947 105.892 159.034 107.371C158.916 107.986 158.963 108.617 159.128 109.248C159.144 109.466 159.206 109.637 159.301 109.777C160.802 113.701 166.853 117.5 168.817 118.248C169.202 118.474 169.611 118.668 170.028 118.855C169.941 118.941 169.863 119.011 169.768 119.05C166.476 120.498 149.745 108.407 159.427 102.388Z" fill="#FFBB24"/>
<path d="M169.918 120.249C173.556 116.574 158.468 78.657 141.863 96.2062C124.299 114.775 164.967 125.263 169.918 120.249ZM145.399 99.4919C155.906 85.8122 169.462 118.435 168.81 119.307C167.788 120.677 133.148 115.453 145.399 99.4919Z" fill="#FFE424"/>
<path opacity="0.18" d="M140.079 98.3396C140.118 98.69 140.158 99.0403 140.205 99.3907C140.621 102.365 141.721 104.786 142.916 107.301C143.144 108.461 143.67 109.528 144.409 110.509C144.59 110.875 144.825 111.132 145.093 111.319C150.484 117.127 163.733 119.564 167.694 119.509C168.527 119.634 169.375 119.696 170.24 119.727C170.161 119.937 170.051 120.117 169.925 120.249C165.163 125.061 127.427 115.562 140.079 98.3396Z" fill="#FFBB24"/>
<path d="M180.196 109.481C173.092 103.681 169.265 118.668 170.813 119.875C172.927 121.518 187.717 115.616 180.196 109.481ZM171.191 119.462C170.9 119.167 174.405 106.242 179.026 110.882C184.416 116.301 171.639 119.93 171.191 119.462Z" fill="#FFE424"/>
<path opacity="0.18" d="M180.974 110.197C180.974 110.33 180.982 110.462 180.974 110.602C180.959 111.739 180.668 112.704 180.346 113.709C180.314 114.153 180.173 114.581 179.937 114.986C179.89 115.134 179.811 115.243 179.717 115.32C177.973 117.765 173.108 119.322 171.615 119.486C171.309 119.572 170.994 119.634 170.672 119.688C170.711 119.766 170.758 119.828 170.813 119.867C172.841 121.456 186.578 116.068 180.974 110.197Z" fill="#FFBB24"/>
<path opacity="0.48" d="M146.814 127.918C149.768 126.501 152.825 125.372 155.985 124.5C157.446 124.103 156.825 121.845 155.356 122.25C151.992 123.169 148.755 124.399 145.619 125.901C144.26 126.555 145.454 128.572 146.814 127.918Z" fill="#FFE424"/>
<path opacity="0.48" d="M142.342 130.736C142.216 132.395 142.099 134.053 141.973 135.711C141.863 137.214 144.22 137.206 144.33 135.711C144.456 134.053 144.574 132.395 144.7 130.736C144.81 129.234 142.452 129.241 142.342 130.736Z" fill="#FFE424"/>
<path opacity="0.45" d="M181.996 125.427C185.532 126.602 189.069 127.77 192.597 128.946C194.035 129.421 194.656 127.171 193.226 126.696C189.69 125.52 186.153 124.352 182.625 123.176C181.179 122.694 180.558 124.952 181.996 125.427Z" fill="#FFC91F"/>
<path opacity="0.45" d="M194.758 130.838C194.798 132.496 194.766 134.147 194.672 135.805C194.585 137.308 196.943 137.3 197.029 135.805C197.124 134.154 197.155 132.496 197.116 130.838C197.077 129.335 194.719 129.327 194.758 130.838Z" fill="#FFC91F"/>
<path opacity="0.45" d="M144.385 168.902C144.401 170.865 144.425 172.827 144.44 174.789C144.456 176.291 146.814 176.291 146.798 174.789C146.782 172.827 146.759 170.865 146.743 168.902C146.727 167.4 144.37 167.4 144.385 168.902Z" fill="#FFC91F"/>
<path opacity="0.45" d="M144.393 155.254C144.425 158.462 144.456 161.677 144.48 164.885C144.495 166.388 146.853 166.388 146.837 164.885C146.806 161.677 146.774 158.462 146.751 155.254C146.735 153.751 144.378 153.751 144.393 155.254Z" fill="#FFC91F"/>
<path opacity="0.51" d="M192.723 151.034C192.613 155.659 192.566 160.291 192.597 164.924C192.605 166.427 194.963 166.427 194.955 164.924C194.923 160.291 194.97 155.667 195.08 151.034C195.12 149.531 192.762 149.531 192.723 151.034Z" fill="#FFAE1F"/>
<path opacity="0.51" d="M192.652 169.331C192.487 171.37 192.534 173.403 192.794 175.435C192.982 176.906 195.34 176.922 195.151 175.435C194.892 173.403 194.845 171.378 195.01 169.331C195.135 167.836 192.778 167.844 192.652 169.331Z" fill="#FFAE1F"/>
<path d="M132.503 121.658C135.576 120.739 138.625 119.727 141.635 118.629C143.049 118.115 142.436 115.858 141.006 116.379C137.989 117.477 134.947 118.481 131.875 119.408C130.429 119.836 131.05 122.094 132.503 121.658Z" fill="#EF4B4B"/>
<path d="M129.847 139.783C129.666 145.335 129.659 150.878 129.808 156.429C129.847 157.932 132.205 157.932 132.165 156.429C132.016 150.878 132.024 145.335 132.205 139.783C132.252 138.281 129.894 138.281 129.847 139.783Z" fill="#EF4B4B"/>
<path d="M129.973 160.322C129.91 162.207 129.902 164.083 129.941 165.967C129.973 167.47 132.33 167.47 132.299 165.967C132.26 164.083 132.275 162.207 132.33 160.322C132.378 158.82 130.02 158.82 129.973 160.322Z" fill="#EF4B4B"/>
<path fill-rule="evenodd" clip-rule="evenodd" d="M91.8375 95.4748C91.9764 93.0981 92.4503 91.1085 92.8452 90.0027C93.621 91.9423 94.0046 93.8045 94.1342 95.5027C95.8324 95.6324 97.6946 96.0159 99.6342 96.7917C98.5283 97.1866 96.5388 97.6605 94.1622 97.7994C94.0296 100.323 93.3807 102.283 92.8452 103.287C92.1936 101.463 91.8962 99.5859 91.8187 97.8183C90.051 97.7407 88.1742 97.4433 86.3496 96.7917C87.3538 96.2562 89.3142 95.6073 91.8375 95.4748Z" fill="url(#paint0_linear)"/>
<path fill-rule="evenodd" clip-rule="evenodd" d="M73.0903 79.8381C73.1828 78.2561 73.4982 76.9318 73.761 76.1957C74.2775 77.4868 74.5327 78.7263 74.6191 79.8567C75.7494 79.943 76.9889 80.1982 78.28 80.7147C77.5439 80.9775 76.2196 81.2929 74.6377 81.3854C74.5494 83.065 74.1175 84.3699 73.761 85.0383C73.3273 83.8238 73.1294 82.5746 73.0777 81.398C71.9011 81.3463 70.6519 81.1484 69.4374 80.7147C70.1058 80.3582 71.4107 79.9263 73.0903 79.8381Z" fill="url(#paint1_linear)"/>
<path fill-rule="evenodd" clip-rule="evenodd" d="M42.8837 68.6978C43.0227 66.3211 43.4965 64.3316 43.8915 63.2257C44.6673 65.1654 45.0508 67.0276 45.1805 68.7258C46.8786 68.8555 48.7408 69.239 50.6804 70.0148C49.5746 70.4097 47.5851 70.8836 45.2084 71.0225C45.0759 73.5457 44.427 75.5061 43.8915 76.5103C43.2398 74.6857 42.9425 72.809 42.8649 71.0413C41.0972 70.9638 39.2204 70.6664 37.3958 70.0148C38.4 69.4793 40.3605 68.8304 42.8837 68.6978Z" fill="url(#paint2_linear)"/>
<path fill-rule="evenodd" clip-rule="evenodd" d="M45.4579 122.963C45.6623 119.467 46.3595 116.539 46.9405 114.913C48.082 117.766 48.6462 120.506 48.837 123.004C51.3354 123.195 54.0751 123.759 56.9287 124.901C55.3017 125.482 52.3747 126.179 48.8781 126.383C48.6831 130.096 47.7284 132.98 46.9405 134.457C45.9818 131.773 45.5443 129.012 45.4302 126.411C42.8296 126.297 40.0684 125.86 37.384 124.901C38.8613 124.113 41.7456 123.158 45.4579 122.963Z" fill="url(#paint3_linear)"/>
<circle cx="66.7139" cy="102.644" r="1.2839" fill="#2F235A"/>
<circle cx="96.1778" cy="65.8312" r="1.2839" fill="white"/>
<circle cx="31.5997" cy="97.5465" r="1.2839" fill="#FFA400"/>
<circle cx="89.1402" cy="122.446" r="1.2839" fill="white"/>
<path d="M93.032 60.4728C90.1293 56.4862 81.9526 47.9709 72.4676 45.8029" stroke="white" stroke-width="1.33463" stroke-linecap="round"/>
<path d="M26.1825 94.1053C21.8923 91.6736 10.9284 87.2961 1.39483 89.2395" stroke="#FFA400" stroke-width="1.33463" stroke-linecap="round"/>
<path d="M84.7337 126.175C82.5353 128.115 77.2461 133.624 73.6769 140.141" stroke="white" stroke-width="1.33463" stroke-linecap="round"/>
<path fill-rule="evenodd" clip-rule="evenodd" d="M243.382 95.4748C243.243 93.0981 242.77 91.1085 242.375 90.0027C241.599 91.9423 241.215 93.8045 241.086 95.5027C239.387 95.6324 237.525 96.0159 235.586 96.7917C236.692 97.1866 238.681 97.6605 241.058 97.7994C241.19 100.323 241.839 102.283 242.375 103.287C243.026 101.463 243.324 99.5859 243.401 97.8183C245.169 97.7407 247.046 97.4433 248.87 96.7917C247.866 96.2562 245.906 95.6073 243.382 95.4748Z" fill="url(#paint4_linear)"/>
<path fill-rule="evenodd" clip-rule="evenodd" d="M262.13 79.8381C262.037 78.2561 261.722 76.9318 261.459 76.1957C260.942 77.4868 260.687 78.7263 260.601 79.8567C259.47 79.943 258.231 80.1982 256.94 80.7147C257.676 80.9775 259 81.2929 260.582 81.3854C260.67 83.065 261.102 84.3699 261.459 85.0383C261.893 83.8238 262.09 82.5746 262.142 81.398C263.319 81.3463 264.568 81.1484 265.782 80.7147C265.114 80.3582 263.809 79.9263 262.13 79.8381Z" fill="url(#paint5_linear)"/>
<path fill-rule="evenodd" clip-rule="evenodd" d="M292.336 68.6978C292.197 66.3211 291.723 64.3316 291.328 63.2257C290.553 65.1654 290.169 67.0276 290.039 68.7258C288.341 68.8555 286.479 69.239 284.54 70.0148C285.645 70.4097 287.635 70.8836 290.012 71.0225C290.144 73.5457 290.793 75.5061 291.328 76.5103C291.98 74.6857 292.277 72.809 292.355 71.0413C294.123 70.9638 295.999 70.6664 297.824 70.0148C296.82 69.4793 294.859 68.8304 292.336 68.6978Z" fill="url(#paint6_linear)"/>
<path fill-rule="evenodd" clip-rule="evenodd" d="M289.75 123.32C289.546 119.823 288.849 116.896 288.268 115.269C287.126 118.123 286.562 120.863 286.371 123.361C283.873 123.552 281.133 124.116 278.279 125.258C279.906 125.839 282.833 126.536 286.33 126.74C286.525 130.452 287.48 133.337 288.268 134.814C289.226 132.13 289.664 129.369 289.778 126.768C292.378 126.654 295.14 126.216 297.824 125.258C296.347 124.47 293.462 123.515 289.75 123.32Z" fill="url(#paint7_linear)"/>
<circle r="1.2839" transform="matrix(-1 0 0 1 268.506 102.644)" fill="#2F235A"/>
<circle r="1.2839" transform="matrix(-1 0 0 1 239.042 65.8312)" fill="white"/>
<circle r="1.2839" transform="matrix(-1 0 0 1 303.62 97.5465)" fill="#FFA400"/>
<circle r="1.2839" transform="matrix(-1 0 0 1 246.08 122.446)" fill="white"/>
<path d="M242.188 60.4728C245.091 56.4862 253.267 47.9709 262.752 45.8029" stroke="white" stroke-width="1.33463" stroke-linecap="round"/>
<path d="M309.037 94.1053C313.328 91.6736 324.292 87.2961 333.825 89.2395" stroke="#FFA400" stroke-width="1.33463" stroke-linecap="round"/>
<path d="M250.486 126.175C252.685 128.115 257.974 133.624 261.543 140.141" stroke="white" stroke-width="1.33463" stroke-linecap="round"/>
<path d="M155.225 2.61876C164.99 7.32171 164.928 17.3999 164.917 17.8279L162.421 17.7798L163.673 17.8049L162.419 17.7879C162.421 17.4264 162.44 8.86238 154.138 4.87083L155.225 2.61876Z" fill="white"/>
<path d="M187.624 2.61876C177.859 7.32171 177.921 17.3999 177.932 17.8279L180.428 17.7798L179.176 17.8049L180.43 17.7879C180.428 17.4264 180.409 8.86238 188.711 4.87083L187.624 2.61876Z" fill="white"/>
<path d="M167.701 45.7985C169.771 45.7985 171.449 44.1208 171.449 42.0513C171.449 39.9819 169.771 38.3042 167.701 38.3042C165.632 38.3042 163.954 39.9819 163.954 42.0513C163.954 44.1208 165.632 45.7985 167.701 45.7985Z" fill="white"/>
<path d="M124.316 15.2742L115.972 24.332L121.233 32.6751L119.115 34.0112L112.841 24.0388L120.811 15.3969L107.438 2.71339L109.151 0.902409L124.316 15.2742Z" fill="url(#paint8_linear)"/>
<path d="M209.253 15.2742L217.596 24.332L212.335 32.6751L214.453 34.0112L220.727 24.0388L212.758 15.3969L226.13 2.71339L224.418 0.902409L209.253 15.2742Z" fill="url(#paint9_linear)"/>
<path d="M186.826 45.9101C186.658 47.5992 181.038 32.5893 194.332 17.4317C195.426 16.1799 203.382 20.1125 202.365 22.666C201.347 25.2009 188.826 26.1883 186.826 45.9101Z" fill="url(#paint10_linear)"/>
<path d="M147.881 45.9101C148.049 47.5992 153.669 32.5893 140.375 17.4317C139.28 16.1799 131.325 20.1125 132.342 22.666C133.359 25.2009 145.881 26.1883 147.881 45.9101Z" fill="url(#paint11_linear)"/>
<defs>
<linearGradient id="paint0_linear" x1="92.9919" y1="91.4167" x2="92.9919" y2="103.89" gradientUnits="userSpaceOnUse">
<stop stop-color="#FFE89E"/>
<stop offset="1" stop-color="#FFBF1A"/>
</linearGradient>
<linearGradient id="paint1_linear" x1="73.8587" y1="77.1369" x2="73.8587" y2="85.4395" gradientUnits="userSpaceOnUse">
<stop stop-color="#FFE89E"/>
<stop offset="1" stop-color="#FFBF1A"/>
</linearGradient>
<linearGradient id="paint2_linear" x1="44.0381" y1="64.6397" x2="44.0381" y2="77.113" gradientUnits="userSpaceOnUse">
<stop stop-color="#FFE89E"/>
<stop offset="1" stop-color="#FFBF1A"/>
</linearGradient>
<linearGradient id="paint3_linear" x1="47.1563" y1="116.993" x2="47.1563" y2="135.344" gradientUnits="userSpaceOnUse">
<stop stop-color="#FFE89E"/>
<stop offset="1" stop-color="#FFBF1A"/>
</linearGradient>
<linearGradient id="paint4_linear" x1="242.228" y1="91.4167" x2="242.228" y2="103.89" gradientUnits="userSpaceOnUse">
<stop stop-color="#FFE89E"/>
<stop offset="1" stop-color="#FFBF1A"/>
</linearGradient>
<linearGradient id="paint5_linear" x1="261.361" y1="77.1369" x2="261.361" y2="85.4395" gradientUnits="userSpaceOnUse">
<stop stop-color="#FFE89E"/>
<stop offset="1" stop-color="#FFBF1A"/>
</linearGradient>
<linearGradient id="paint6_linear" x1="291.182" y1="64.6397" x2="291.182" y2="77.113" gradientUnits="userSpaceOnUse">
<stop stop-color="#FFE89E"/>
<stop offset="1" stop-color="#FFBF1A"/>
</linearGradient>
<linearGradient id="paint7_linear" x1="288.052" y1="117.35" x2="288.052" y2="135.701" gradientUnits="userSpaceOnUse">
<stop stop-color="#FFE89E"/>
<stop offset="1" stop-color="#FFBF1A"/>
</linearGradient>
<linearGradient id="paint8_linear" x1="110.103" y1="17.713" x2="125.139" y2="16.7571" gradientUnits="userSpaceOnUse">
<stop stop-color="#FFE89E"/>
<stop offset="1" stop-color="#FFBF1A"/>
</linearGradient>
<linearGradient id="paint9_linear" x1="223.465" y1="17.713" x2="208.429" y2="16.7571" gradientUnits="userSpaceOnUse">
<stop stop-color="#FFE89E"/>
<stop offset="1" stop-color="#FFBF1A"/>
</linearGradient>
<linearGradient id="paint10_linear" x1="201.547" y1="25.791" x2="180.561" y2="37.1004" gradientUnits="userSpaceOnUse">
<stop stop-color="#FFE89E"/>
<stop offset="1" stop-color="#FFBF1A"/>
</linearGradient>
<linearGradient id="paint11_linear" x1="133.16" y1="25.791" x2="154.145" y2="37.1004" gradientUnits="userSpaceOnUse">
<stop stop-color="#FFE89E"/>
<stop offset="1" stop-color="#FFBF1A"/>
</linearGradient>
</defs>
</svg>
