<svg xmlns="http://www.w3.org/2000/svg" xmlns:xlink="http://www.w3.org/1999/xlink" width="80" height="80" viewBox="0 0 80 80">
  <defs>
    <filter id="Rectangle_496" x="2.54" y="11" width="70.89" height="63.26" filterUnits="userSpaceOnUse">
      <feOffset dy="3" input="SourceAlpha"/>
      <feGaussianBlur stdDeviation="8" result="blur"/>
      <feFlood flood-opacity="0.122"/>
      <feComposite operator="in" in2="blur"/>
      <feComposite in="SourceGraphic"/>
    </filter>
  </defs>
  <g id="Group_1469" data-name="Group 1469" transform="translate(-12982 -1426)">
    <g id="Rectangle_486" data-name="Rectangle 486" transform="translate(12982 1426)" fill="#fff" stroke="#e4e4e4" stroke-width="1">
      <rect width="80" height="80" rx="5" stroke="none"/>
      <rect x="0.5" y="0.5" width="79" height="79" rx="4.5" fill="none"/>
    </g>
    <g id="Group_1435" data-name="Group 1435" transform="translate(303.505 305)">
      <g id="sun_2_" data-name="sun (2)" transform="translate(12692.495 1157.04)">
        <path id="Path_1260" data-name="Path 1260" d="M119.325,117a2.325,2.325,0,1,0,2.325,2.325A2.328,2.328,0,0,0,119.325,117Zm0,4.148a1.823,1.823,0,1,1,1.823-1.823A1.825,1.825,0,0,1,119.325,121.148Z" transform="translate(-115.043 -115.043)" fill="#222"/>
        <path id="Path_1261" data-name="Path 1261" d="M241.251,1.366a.251.251,0,0,0,.251-.251V.251a.251.251,0,0,0-.5,0v.864A.251.251,0,0,0,241.251,1.366Z" transform="translate(-236.969 0)" fill="#222"/>
        <path id="Path_1262" data-name="Path 1262" d="M431.472,241h-.864a.251.251,0,0,0,0,.5h.864a.251.251,0,0,0,0-.5Z" transform="translate(-423.158 -236.969)" fill="#222"/>
        <path id="Path_1263" data-name="Path 1263" d="M241.251,430.357a.251.251,0,0,0-.251.251v.864a.251.251,0,0,0,.5,0v-.864A.251.251,0,0,0,241.251,430.357Z" transform="translate(-236.969 -423.158)" fill="#222"/>
        <path id="Path_1264" data-name="Path 1264" d="M1.366,241.251A.251.251,0,0,0,1.115,241H.251a.251.251,0,0,0,0,.5h.864A.251.251,0,0,0,1.366,241.251Z" transform="translate(0 -236.969)" fill="#222"/>
        <path id="Path_1265" data-name="Path 1265" d="M375.146,71.7a.25.25,0,0,0,.177-.073l.611-.611a.251.251,0,0,0-.355-.355l-.611.611a.251.251,0,0,0,.177.428Z" transform="translate(-368.624 -69.406)" fill="#222"/>
        <path id="Path_1266" data-name="Path 1266" d="M375.324,374.971a.251.251,0,1,0-.355.355l.611.611a.251.251,0,0,0,.355-.355Z" transform="translate(-368.624 -368.626)" fill="#222"/>
        <path id="Path_1267" data-name="Path 1267" d="M71.271,374.969l-.611.611a.251.251,0,1,0,.355.355l.611-.611a.251.251,0,0,0-.355-.355Z" transform="translate(-69.406 -368.624)" fill="#222"/>
        <path id="Path_1268" data-name="Path 1268" d="M71.271,71.626a.251.251,0,0,0,.355-.355l-.611-.611a.251.251,0,0,0-.355.355Z" transform="translate(-69.406 -69.406)" fill="#222"/>
        <path id="Path_1269" data-name="Path 1269" d="M313.82,19.729a.251.251,0,0,0,.328-.135l.332-.8a.251.251,0,0,0-.463-.193l-.331.8A.251.251,0,0,0,313.82,19.729Z" transform="translate(-308.418 -18.14)" fill="#222"/>
        <path id="Path_1270" data-name="Path 1270" d="M417,314.016l-.8-.331a.251.251,0,0,0-.193.463l.8.332a.251.251,0,1,0,.193-.463Z" transform="translate(-408.898 -308.419)" fill="#222"/>
        <path id="Path_1271" data-name="Path 1271" d="M149.188,415.874a.251.251,0,0,0-.328.135l-.331.8a.251.251,0,1,0,.463.193l.331-.8A.251.251,0,0,0,149.188,415.874Z" transform="translate(-146.025 -408.899)" fill="#222"/>
        <path id="Path_1272" data-name="Path 1272" d="M18.6,148.992l.8.332a.251.251,0,0,0,.193-.463l-.8-.331a.251.251,0,1,0-.193.463Z" transform="translate(-18.141 -146.025)" fill="#222"/>
        <path id="Path_1273" data-name="Path 1273" d="M416.043,149.706a.251.251,0,0,0,.328.136l.8-.33a.251.251,0,1,0-.191-.464l-.8.33A.251.251,0,0,0,416.043,149.706Z" transform="translate(-409.065 -146.537)" fill="#222"/>
        <path id="Path_1274" data-name="Path 1274" d="M313.737,416.18a.251.251,0,0,0-.464.192l.33.8a.251.251,0,0,0,.464-.191Z" transform="translate(-308.014 -409.065)" fill="#222"/>
        <path id="Path_1275" data-name="Path 1275" d="M19.514,313.41a.251.251,0,0,0-.328-.136l-.8.33a.251.251,0,1,0,.191.464l.8-.33A.251.251,0,0,0,19.514,313.41Z" transform="translate(-17.927 -308.014)" fill="#222"/>
        <path id="Path_1276" data-name="Path 1276" d="M149.379,19.378a.251.251,0,0,0,.464-.191l-.33-.8a.251.251,0,0,0-.464.191Z" transform="translate(-146.537 -17.928)" fill="#222"/>
      </g>
      <rect id="Rectangle_495" data-name="Rectangle 495" width="40.329" height="15.26" rx="7.63" transform="translate(12705.035 1153)" fill="#ededed"/>
      <g transform="matrix(1, 0, 0, 1, 12678.5, 1121)" filter="url(#Rectangle_496)">
        <rect id="Rectangle_496-2" data-name="Rectangle 496" width="22.89" height="15.26" rx="7.63" transform="translate(26.54 32)" fill="#fff"/>
      </g>
      <text id="Light" transform="translate(12716.485 1162.36)" fill="#666" font-size="5" font-family="Poppins-Medium, Poppins" font-weight="500"><tspan x="-6.028" y="0">Light</tspan></text>
      <text id="Dark" transform="translate(12735.015 1162.36)" fill="#666" font-size="5" font-family="Poppins-Medium, Poppins" font-weight="500"><tspan x="-5.805" y="0">Dark</tspan></text>
    </g>
  </g>
</svg>
