<svg width="100" height="81" viewBox="0 0 100 81" fill="none" xmlns="http://www.w3.org/2000/svg">
<rect width="100" height="81" rx="4" fill="black"/>
<path d="M0 0H100V15H0V0Z" fill="#3D3D3D"/>
<path d="M0 66H100V81H0V66Z" fill="#0F0F0F"/>
<path d="M14 7.5C14 6.67157 14.6716 6 15.5 6H28.5C29.3284 6 30 6.67157 30 7.5C30 8.32843 29.3284 9 28.5 9H15.5C14.6716 9 14 8.32843 14 7.5Z" fill="#E58C17"/>
<path d="M45 23H76V26H45V23Z" fill="#DFDEDB"/>
<path d="M45 52C45 50.8954 45.8954 50 47 50H60C61.1046 50 62 50.8954 62 52C62 53.1046 61.1046 54 60 54H47C45.8954 54 45 53.1046 45 52Z" fill="#E58C17"/>
<path d="M45 31.5882H89V33.5882H45V31.5882Z" fill="#858586"/>
<path d="M45 35.8824H87V37.8824H45V35.8824Z" fill="#858586"/>
<path d="M45 40.1765H85V42.1765H45V40.1765Z" fill="#858586"/>
<path d="M14 23H38V54H14V23Z" fill="#858585"/>
<path d="M34 7.5C34 6.67157 34.6716 6 35.5 6H48.5C49.3284 6 50 6.67157 50 7.5C50 8.32843 49.3284 9 48.5 9H35.5C34.6716 9 34 8.32843 34 7.5Z" fill="#E58C17"/>
<path d="M54 7.5C54 6.67157 54.6716 6 55.5 6H68.5C69.3284 6 70 6.67157 70 7.5C70 8.32843 69.3284 9 68.5 9H55.5C54.6716 9 54 8.32843 54 7.5Z" fill="#E58C17"/>
<path d="M46.4492 73.8203V73.1328H44.1641V73.75H45.75V73.8867C45.75 74.8398 45.0664 75.4844 44.0586 75.4844C42.9258 75.4844 42.2227 74.6016 42.2227 73.1797C42.2227 71.7773 42.9375 70.8789 44.0547 70.8789C44.8906 70.8789 45.457 71.2812 45.6992 72.043H46.4141C46.2109 70.9258 45.3047 70.2305 44.0547 70.2305C42.5117 70.2305 41.5 71.3984 41.5 73.1797C41.5 74.9844 42.4961 76.1328 44.0547 76.1328C45.4961 76.1328 46.4492 75.2109 46.4492 73.8203Z" fill="white"/>
<path d="M49.3398 76.0742C50.5391 76.0742 51.2812 75.2461 51.2812 73.8945C51.2812 72.5391 50.5391 71.7148 49.3398 71.7148C48.1406 71.7148 47.3984 72.5391 47.3984 73.8945C47.3984 75.2461 48.1406 76.0742 49.3398 76.0742ZM49.3398 75.4688C48.543 75.4688 48.0938 74.8906 48.0938 73.8945C48.0938 72.8945 48.543 72.3203 49.3398 72.3203C50.1367 72.3203 50.5859 72.8945 50.5859 73.8945C50.5859 74.8906 50.1367 75.4688 49.3398 75.4688Z" fill="white"/>
<path d="M52.375 76H53.0469V70.1172H52.375V76Z" fill="white"/>
<path d="M55.9102 76.0742C56.4922 76.0742 56.9922 75.7969 57.2578 75.3281H57.3203V76H57.9609V70.1172H57.2891V72.4531H57.2305C56.9922 71.9922 56.4961 71.7148 55.9102 71.7148C54.8398 71.7148 54.1406 72.5742 54.1406 73.8945C54.1406 75.2188 54.832 76.0742 55.9102 76.0742ZM56.0664 72.3203C56.8281 72.3203 57.3047 72.9297 57.3047 73.8945C57.3047 74.8672 56.832 75.4688 56.0664 75.4688C55.2969 75.4688 54.8359 74.8789 54.8359 73.8945C54.8359 72.9141 55.3008 72.3203 56.0664 72.3203Z" fill="white"/>
</svg>
