<svg width="100" height="81" viewBox="0 0 100 81" fill="none" xmlns="http://www.w3.org/2000/svg">
<rect width="100" height="81" rx="4" fill="#23243A"/>
<path d="M0 0H100V15H0V0Z" fill="#4F5061"/>
<path d="M0 66H100V81H0V66Z" fill="#0F0F0F"/>
<path d="M14 7.5C14 6.67157 14.6716 6 15.5 6H28.5C29.3284 6 30 6.67157 30 7.5C30 8.32843 29.3284 9 28.5 9H15.5C14.6716 9 14 8.32843 14 7.5Z" fill="#FF9323"/>
<path d="M45 23H76V26H45V23Z" fill="#D6CB99"/>
<path d="M45 52C45 50.8954 45.8954 50 47 50H60C61.1046 50 62 50.8954 62 52C62 53.1046 61.1046 54 60 54H47C45.8954 54 45 53.1046 45 52Z" fill="#FF9323"/>
<path d="M45 31.5882H89V33.5882H45V31.5882Z" fill="#8E8873"/>
<path d="M45 35.8824H87V37.8824H45V35.8824Z" fill="#8E8873"/>
<path d="M45 40.1765H85V42.1765H45V40.1765Z" fill="#8E8873"/>
<path d="M14 23H38V54H14V23Z" fill="#91919C"/>
<path d="M34 7.5C34 6.67157 34.6716 6 35.5 6H48.5C49.3284 6 50 6.67157 50 7.5C50 8.32843 49.3284 9 48.5 9H35.5C34.6716 9 34 8.32843 34 7.5Z" fill="#FF9323"/>
<path d="M54 7.5C54 6.67157 54.6716 6 55.5 6H68.5C69.3284 6 70 6.67157 70 7.5C70 8.32843 69.3284 9 68.5 9H55.5C54.6716 9 54 8.32843 54 7.5Z" fill="#FF9323"/>
<path d="M39.0859 70.2305C37.4922 70.2305 36.5 71.3672 36.5 73.1797C36.5 74.9844 37.4688 76.1328 39.0859 76.1328C40.6953 76.1328 41.6719 74.9805 41.6719 73.1797C41.6719 71.3711 40.6875 70.2305 39.0859 70.2305ZM39.0859 70.8789C40.2383 70.8789 40.9492 71.7695 40.9492 73.1797C40.9492 74.5781 40.2422 75.4844 39.0859 75.4844C37.9141 75.4844 37.2227 74.5781 37.2227 73.1797C37.2227 71.7695 37.9375 70.8789 39.0859 70.8789Z" fill="white"/>
<path d="M42.8047 76H43.4766V73.3906C43.4766 72.7969 43.9414 72.3672 44.582 72.3672C44.7148 72.3672 44.957 72.3906 45.0117 72.4062V71.7344C44.9258 71.7227 44.7852 71.7148 44.6758 71.7148C44.1172 71.7148 43.6328 72.0039 43.5078 72.4141H43.4453V71.7891H42.8047V76Z" fill="white"/>
<path d="M47.0234 76.0742C47.5859 76.0742 48.0469 75.8281 48.3203 75.3789H48.3828V76H49.0234V73.1172C49.0234 72.2422 48.4492 71.7148 47.4219 71.7148C46.5234 71.7148 45.8594 72.1602 45.7695 72.8359H46.4492C46.543 72.5039 46.8945 72.3125 47.3984 72.3125C48.0273 72.3125 48.3516 72.5977 48.3516 73.1172V73.5L47.1367 73.5742C46.1562 73.6328 45.6016 74.0664 45.6016 74.8203C45.6016 75.5898 46.207 76.0742 47.0234 76.0742ZM47.1484 75.4844C46.6602 75.4844 46.2969 75.2344 46.2969 74.8047C46.2969 74.3828 46.5781 74.1602 47.2188 74.1172L48.3516 74.043V74.4297C48.3516 75.0312 47.8398 75.4844 47.1484 75.4844Z" fill="white"/>
<path d="M50.2656 76H50.9375V73.5078C50.9375 72.7695 51.3711 72.3203 52.043 72.3203C52.7148 72.3203 53.0352 72.6797 53.0352 73.4375V76H53.707V73.2734C53.707 72.2734 53.1797 71.7148 52.2344 71.7148C51.5898 71.7148 51.1797 71.9883 50.9688 72.4531H50.9062V71.7891H50.2656V76Z" fill="white"/>
<path d="M56.6719 77.6172C57.8203 77.6172 58.5469 77.0156 58.5469 76.0742V71.7891H57.9062V72.457H57.8438C57.6016 72.0039 57.082 71.7148 56.4922 71.7148C55.4102 71.7148 54.7266 72.5703 54.7266 73.832C54.7266 75.0938 55.4023 75.9375 56.4922 75.9375C57.0703 75.9375 57.5469 75.6758 57.8125 75.2109H57.875V76.0391C57.875 76.6602 57.4258 77.0312 56.6719 77.0312C56.0664 77.0312 55.6914 76.8086 55.6172 76.4648H54.9062C55.0078 77.1602 55.6562 77.6172 56.6719 77.6172ZM56.6406 75.3438C55.8594 75.3438 55.4219 74.75 55.4219 73.832C55.4219 72.9141 55.8594 72.3203 56.6406 72.3203C57.418 72.3203 57.8906 72.9141 57.8906 73.832C57.8906 74.75 57.4219 75.3438 56.6406 75.3438Z" fill="white"/>
<path d="M62.6016 74.9102C62.4258 75.2812 62.0586 75.4805 61.5156 75.4805C60.8008 75.4805 60.3359 74.9531 60.3008 74.1211V74.0898H63.3281V73.832C63.3281 72.5234 62.6367 71.7148 61.5 71.7148C60.3438 71.7148 59.6016 72.5742 59.6016 73.8984C59.6016 75.2305 60.332 76.0742 61.5 76.0742C62.4219 76.0742 63.0781 75.6289 63.2734 74.9102H62.6016ZM61.4922 72.3086C62.1602 72.3086 62.6055 72.8008 62.6211 73.5469H60.3008C60.3516 72.8008 60.8203 72.3086 61.4922 72.3086Z" fill="white"/>
</svg>
