<svg width="100" height="81" viewBox="0 0 100 81" fill="none" xmlns="http://www.w3.org/2000/svg">
<rect width="100" height="81" rx="4" fill="#1B2836"/>
<path d="M0 0H100V15H0V0Z" fill="#4F5061"/>
<path d="M0 66H100V81H0V66Z" fill="#0F0F0F"/>
<path d="M14 7.5C14 6.67157 14.6716 6 15.5 6H28.5C29.3284 6 30 6.67157 30 7.5C30 8.32843 29.3284 9 28.5 9H15.5C14.6716 9 14 8.32843 14 7.5Z" fill="#459BE6"/>
<path d="M45 23H76V26H45V23Z" fill="white"/>
<path d="M45 52C45 50.8954 45.8954 50 47 50H60C61.1046 50 62 50.8954 62 52C62 53.1046 61.1046 54 60 54H47C45.8954 54 45 53.1046 45 52Z" fill="#459BE6"/>
<path d="M45 31.5882H89V33.5882H45V31.5882Z" fill="#A7A7B0"/>
<path d="M45 35.8824H87V37.8824H45V35.8824Z" fill="#A7A7B0"/>
<path d="M45 40.1765H85V42.1765H45V40.1765Z" fill="#A7A7B0"/>
<path d="M14 23H38V54H14V23Z" fill="#91919C"/>
<path d="M34 7.5C34 6.67157 34.6716 6 35.5 6H48.5C49.3284 6 50 6.67157 50 7.5C50 8.32843 49.3284 9 48.5 9H35.5C34.6716 9 34 8.32843 34 7.5Z" fill="#459BE6"/>
<path d="M54 7.5C54 6.67157 54.6716 6 55.5 6H68.5C69.3284 6 70 6.67157 70 7.5C70 8.32843 69.3284 9 68.5 9H55.5C54.6716 9 54 8.32843 54 7.5Z" fill="#459BE6"/>
<path d="M33.4492 74.5273C33.5234 75.5 34.3477 76.1328 35.543 76.1328C36.832 76.1328 37.6484 75.4727 37.6484 74.4375C37.6484 73.6094 37.1797 73.1562 36.0117 72.8633L35.4219 72.707C34.6445 72.5078 34.3359 72.2539 34.3359 71.8125C34.3359 71.2422 34.832 70.8672 35.582 70.8672C36.2852 70.8672 36.7617 71.2109 36.8594 71.7891H37.5664C37.5078 70.8789 36.6953 70.2305 35.6055 70.2305C34.4141 70.2305 33.6133 70.8789 33.6133 71.8359C33.6133 72.6367 34.0547 73.0977 35.0742 73.3555L35.7969 73.543C36.5742 73.7383 36.9258 74.043 36.9258 74.5234C36.9258 75.082 36.3672 75.4922 35.6094 75.4922C34.8086 75.4922 34.2461 75.1172 34.1602 74.5273H33.4492Z" fill="white"/>
<path d="M39.9062 76.0742C40.4688 76.0742 40.9297 75.8281 41.2031 75.3789H41.2656V76H41.9062V73.1172C41.9062 72.2422 41.332 71.7148 40.3047 71.7148C39.4062 71.7148 38.7422 72.1602 38.6523 72.8359H39.332C39.4258 72.5039 39.7773 72.3125 40.2812 72.3125C40.9102 72.3125 41.2344 72.5977 41.2344 73.1172V73.5L40.0195 73.5742C39.0391 73.6328 38.4844 74.0664 38.4844 74.8203C38.4844 75.5898 39.0898 76.0742 39.9062 76.0742ZM40.0312 75.4844C39.543 75.4844 39.1797 75.2344 39.1797 74.8047C39.1797 74.3828 39.4609 74.1602 40.1016 74.1172L41.2344 74.043V74.4297C41.2344 75.0312 40.7227 75.4844 40.0312 75.4844Z" fill="white"/>
<path d="M45.1992 71.7148C44.625 71.7148 44.1211 72.0078 43.8516 72.4922H43.7891V71.7891H43.1484V77.4062H43.8203V75.3672H43.8828C44.1133 75.8125 44.5977 76.0742 45.1992 76.0742C46.2695 76.0742 46.9688 75.2109 46.9688 73.8945C46.9688 72.5703 46.2734 71.7148 45.1992 71.7148ZM45.0391 75.4688C44.2812 75.4688 43.8008 74.8594 43.8008 73.8945C43.8008 72.9258 44.2812 72.3203 45.043 72.3203C45.8125 72.3203 46.2734 72.9102 46.2734 73.8945C46.2734 74.8789 45.8125 75.4688 45.0391 75.4688Z" fill="white"/>
<path d="M50.0742 71.7148C49.5 71.7148 48.9961 72.0078 48.7266 72.4922H48.6641V71.7891H48.0234V77.4062H48.6953V75.3672H48.7578C48.9883 75.8125 49.4727 76.0742 50.0742 76.0742C51.1445 76.0742 51.8438 75.2109 51.8438 73.8945C51.8438 72.5703 51.1484 71.7148 50.0742 71.7148ZM49.9141 75.4688C49.1562 75.4688 48.6758 74.8594 48.6758 73.8945C48.6758 72.9258 49.1562 72.3203 49.918 72.3203C50.6875 72.3203 51.1484 72.9102 51.1484 73.8945C51.1484 74.8789 50.6875 75.4688 49.9141 75.4688Z" fill="white"/>
<path d="M52.9375 76H53.6094V73.5078C53.6094 72.7969 54.0234 72.3203 54.7773 72.3203C55.4141 72.3203 55.75 72.6914 55.75 73.4375V76H56.4219V73.2734C56.4219 72.2852 55.8594 71.7148 54.9688 71.7148C54.3242 71.7148 53.8828 71.9883 53.6719 72.4531H53.6094V70.1172H52.9375V76Z" fill="white"/>
<path d="M58 70.9766C58.2578 70.9766 58.4688 70.7656 58.4688 70.5078C58.4688 70.25 58.2578 70.0391 58 70.0391C57.7422 70.0391 57.5312 70.25 57.5312 70.5078C57.5312 70.7656 57.7422 70.9766 58 70.9766ZM57.6641 76H58.3359V71.7891H57.6641V76Z" fill="white"/>
<path d="M59.6172 76H60.2891V73.3906C60.2891 72.7969 60.7539 72.3672 61.3945 72.3672C61.5273 72.3672 61.7695 72.3906 61.8242 72.4062V71.7344C61.7383 71.7227 61.5977 71.7148 61.4883 71.7148C60.9297 71.7148 60.4453 72.0039 60.3203 72.4141H60.2578V71.7891H59.6172V76Z" fill="white"/>
<path d="M65.3359 74.9102C65.1602 75.2812 64.793 75.4805 64.25 75.4805C63.5352 75.4805 63.0703 74.9531 63.0352 74.1211V74.0898H66.0625V73.832C66.0625 72.5234 65.3711 71.7148 64.2344 71.7148C63.0781 71.7148 62.3359 72.5742 62.3359 73.8984C62.3359 75.2305 63.0664 76.0742 64.2344 76.0742C65.1562 76.0742 65.8125 75.6289 66.0078 74.9102H65.3359ZM64.2266 72.3086C64.8945 72.3086 65.3398 72.8008 65.3555 73.5469H63.0352C63.0859 72.8008 63.5547 72.3086 64.2266 72.3086Z" fill="white"/>
</svg>
