<svg width="100" height="81" viewBox="0 0 100 81" fill="none" xmlns="http://www.w3.org/2000/svg">
<rect width="100" height="81" rx="4" fill="#270000"/>
<path d="M0 0H100V15H0V0Z" fill="#523333"/>
<path d="M0 66H100V81H0V66Z" fill="#0F0F0F"/>
<path d="M14 7.5C14 6.67157 14.6716 6 15.5 6H28.5C29.3284 6 30 6.67157 30 7.5C30 8.32843 29.3284 9 28.5 9H15.5C14.6716 9 14 8.32843 14 7.5Z" fill="#FF7878"/>
<path d="M45 23H76V26H45V23Z" fill="white"/>
<path d="M45 52C45 50.8954 45.8954 50 47 50H60C61.1046 50 62 50.8954 62 52C62 53.1046 61.1046 54 60 54H47C45.8954 54 45 53.1046 45 52Z" fill="#FF7878"/>
<path d="M45 31.5882H89V33.5882H45V31.5882Z" fill="#A99999"/>
<path d="M45 35.8824H87V37.8824H45V35.8824Z" fill="#A99999"/>
<path d="M45 40.1765H85V42.1765H45V40.1765Z" fill="#A99999"/>
<path d="M14 23H38V54H14V23Z" fill="#938080"/>
<path d="M34 7.5C34 6.67157 34.6716 6 35.5 6H48.5C49.3284 6 50 6.67157 50 7.5C50 8.32843 49.3284 9 48.5 9H35.5C34.6716 9 34 8.32843 34 7.5Z" fill="#FF7878"/>
<path d="M54 7.5C54 6.67157 54.6716 6 55.5 6H68.5C69.3284 6 70 6.67157 70 7.5C70 8.32843 69.3284 9 68.5 9H55.5C54.6716 9 54 8.32843 54 7.5Z" fill="#FF7878"/>
<path d="M42.4219 73.7695H43.8086L45.0156 76H45.8398L44.5352 73.6602C45.2422 73.4375 45.668 72.8281 45.668 72.043C45.668 71.0273 44.957 70.3633 43.8711 70.3633H41.7188V76H42.4219V73.7695ZM42.4219 70.9883H43.7773C44.5039 70.9883 44.9414 71.3906 44.9414 72.0664C44.9414 72.7578 44.5312 73.1445 43.8086 73.1445H42.4219V70.9883Z" fill="white"/>
<path d="M48.4727 76.0742C49.6719 76.0742 50.4141 75.2461 50.4141 73.8945C50.4141 72.5391 49.6719 71.7148 48.4727 71.7148C47.2734 71.7148 46.5312 72.5391 46.5312 73.8945C46.5312 75.2461 47.2734 76.0742 48.4727 76.0742ZM48.4727 75.4688C47.6758 75.4688 47.2266 74.8906 47.2266 73.8945C47.2266 72.8945 47.6758 72.3203 48.4727 72.3203C49.2695 72.3203 49.7188 72.8945 49.7188 73.8945C49.7188 74.8906 49.2695 75.4688 48.4727 75.4688Z" fill="white"/>
<path d="M51.3711 72.9414C51.3711 73.5508 51.7305 73.8906 52.5195 74.082L53.2422 74.2578C53.6914 74.3672 53.9102 74.5625 53.9102 74.8516C53.9102 75.2383 53.5039 75.5078 52.9375 75.5078C52.3984 75.5078 52.0625 75.2812 51.9492 74.9258H51.2578C51.332 75.625 51.9766 76.0742 52.9141 76.0742C53.8711 76.0742 54.6016 75.5547 54.6016 74.8008C54.6016 74.1953 54.2188 73.8516 53.4258 73.6602L52.7773 73.5039C52.2812 73.3828 52.0469 73.2031 52.0469 72.9141C52.0469 72.5391 52.4375 72.2852 52.9375 72.2852C53.4453 72.2852 53.7734 72.5078 53.8633 72.8438H54.5273C54.4375 72.1523 53.8242 71.7148 52.9414 71.7148C52.0469 71.7148 51.3711 72.2422 51.3711 72.9414Z" fill="white"/>
<path d="M58.4453 74.9102C58.2695 75.2812 57.9023 75.4805 57.3594 75.4805C56.6445 75.4805 56.1797 74.9531 56.1445 74.1211V74.0898H59.1719V73.832C59.1719 72.5234 58.4805 71.7148 57.3438 71.7148C56.1875 71.7148 55.4453 72.5742 55.4453 73.8984C55.4453 75.2305 56.1758 76.0742 57.3438 76.0742C58.2656 76.0742 58.9219 75.6289 59.1172 74.9102H58.4453ZM57.3359 72.3086C58.0039 72.3086 58.4492 72.8008 58.4648 73.5469H56.1445C56.1953 72.8008 56.6641 72.3086 57.3359 72.3086Z" fill="white"/>
</svg>
