<svg width="100" height="81" viewBox="0 0 100 81" fill="none" xmlns="http://www.w3.org/2000/svg">
<rect width="100" height="81" rx="4" fill="#160037"/>
<path d="M0 0H100V15H0V0Z" fill="#45335F"/>
<path d="M0 66H100V81H0V66Z" fill="#0F0F0F"/>
<path d="M14 7.5C14 6.67157 14.6716 6 15.5 6H28.5C29.3284 6 30 6.67157 30 7.5C30 8.32843 29.3284 9 28.5 9H15.5C14.6716 9 14 8.32843 14 7.5Z" fill="#B381FF"/>
<path d="M45 23H76V26H45V23Z" fill="#EBEBEB"/>
<path d="M45 52C45 50.8954 45.8954 50 47 50H60C61.1046 50 62 50.8954 62 52C62 53.1046 61.1046 54 60 54H47C45.8954 54 45 53.1046 45 52Z" fill="#B381FF"/>
<path d="M45 31.5882H89V33.5882H45V31.5882Z" fill="#968DA3"/>
<path d="M45 35.8824H87V37.8824H45V35.8824Z" fill="#968DA3"/>
<path d="M45 40.1765H85V42.1765H45V40.1765Z" fill="#968DA3"/>
<path d="M14 23H38V54H14V23Z" fill="#8A809B"/>
<path d="M34 7.5C34 6.67157 34.6716 6 35.5 6H48.5C49.3284 6 50 6.67157 50 7.5C50 8.32843 49.3284 9 48.5 9H35.5C34.6716 9 34 8.32843 34 7.5Z" fill="#B381FF"/>
<path d="M54 7.5C54 6.67157 54.6716 6 55.5 6H68.5C69.3284 6 70 6.67157 70 7.5C70 8.32843 69.3284 9 68.5 9H55.5C54.6716 9 54 8.32843 54 7.5Z" fill="#B381FF"/>
<path d="M42.043 76L44.1211 70.3633H43.3828L41.7266 75.0898H41.6641L40.0078 70.3633H39.2695L41.3477 76H42.043Z" fill="white"/>
<path d="M45.375 70.9766C45.6328 70.9766 45.8438 70.7656 45.8438 70.5078C45.8438 70.25 45.6328 70.0391 45.375 70.0391C45.1172 70.0391 44.9062 70.25 44.9062 70.5078C44.9062 70.7656 45.1172 70.9766 45.375 70.9766ZM45.0391 76H45.7109V71.7891H45.0391V76Z" fill="white"/>
<path d="M48.7227 76.0742C49.9219 76.0742 50.6641 75.2461 50.6641 73.8945C50.6641 72.5391 49.9219 71.7148 48.7227 71.7148C47.5234 71.7148 46.7812 72.5391 46.7812 73.8945C46.7812 75.2461 47.5234 76.0742 48.7227 76.0742ZM48.7227 75.4688C47.9258 75.4688 47.4766 74.8906 47.4766 73.8945C47.4766 72.8945 47.9258 72.3203 48.7227 72.3203C49.5195 72.3203 49.9688 72.8945 49.9688 73.8945C49.9688 74.8906 49.5195 75.4688 48.7227 75.4688Z" fill="white"/>
<path d="M51.7578 76H52.4297V70.1172H51.7578V76Z" fill="white"/>
<path d="M56.5234 74.9102C56.3477 75.2812 55.9805 75.4805 55.4375 75.4805C54.7227 75.4805 54.2578 74.9531 54.2227 74.1211V74.0898H57.25V73.832C57.25 72.5234 56.5586 71.7148 55.4219 71.7148C54.2656 71.7148 53.5234 72.5742 53.5234 73.8984C53.5234 75.2305 54.2539 76.0742 55.4219 76.0742C56.3438 76.0742 57 75.6289 57.1953 74.9102H56.5234ZM55.4141 72.3086C56.082 72.3086 56.5273 72.8008 56.543 73.5469H54.2227C54.2734 72.8008 54.7422 72.3086 55.4141 72.3086Z" fill="white"/>
<path d="M58.5859 70.6992V71.7891H57.9062V72.3516H58.5859V74.9062C58.5859 75.7109 58.9336 76.0312 59.8008 76.0312C59.9336 76.0312 60.0625 76.0156 60.1953 75.9922V75.4258C60.0703 75.4375 60.0039 75.4414 59.8828 75.4414C59.4453 75.4414 59.2578 75.2305 59.2578 74.7344V72.3516H60.1953V71.7891H59.2578V70.6992H58.5859Z" fill="white"/>
</svg>
