<svg width="100" height="81" viewBox="0 0 100 81" fill="none" xmlns="http://www.w3.org/2000/svg">
<rect width="100" height="81" rx="4" fill="#000A3B"/>
<path d="M0 0H100V15H0V0Z" fill="#333B62"/>
<path d="M0 66H100V81H0V66Z" fill="#0F0F0F"/>
<path d="M14 7.5C14 6.67157 14.6716 6 15.5 6H28.5C29.3284 6 30 6.67157 30 7.5C30 8.32843 29.3284 9 28.5 9H15.5C14.6716 9 14 8.32843 14 7.5Z" fill="#3AFF82"/>
<path d="M45 23H76V26H45V23Z" fill="white"/>
<path d="M45 52C45 50.8954 45.8954 50 47 50H60C61.1046 50 62 50.8954 62 52C62 53.1046 61.1046 54 60 54H47C45.8954 54 45 53.1046 45 52Z" fill="#3AFF82"/>
<path d="M45 31.5882H89V33.5882H45V31.5882Z" fill="#999DB1"/>
<path d="M45 35.8824H87V37.8824H45V35.8824Z" fill="#999DB1"/>
<path d="M45 40.1765H85V42.1765H45V40.1765Z" fill="#999DB1"/>
<path d="M14 23H38V54H14V23Z" fill="#80849D"/>
<path d="M34 7.5C34 6.67157 34.6716 6 35.5 6H48.5C49.3284 6 50 6.67157 50 7.5C50 8.32843 49.3284 9 48.5 9H35.5C34.6716 9 34 8.32843 34 7.5Z" fill="#3AFF82"/>
<path d="M54 7.5C54 6.67157 54.6716 6 55.5 6H68.5C69.3284 6 70 6.67157 70 7.5C70 8.32843 69.3284 9 68.5 9H55.5C54.6716 9 54 8.32843 54 7.5Z" fill="#3AFF82"/>
<path d="M42.4219 76V74.0312L43.0977 73.2852L45.1328 76H46.043L43.582 72.7969L45.8359 70.3633H44.9531L42.4844 73.1016H42.4219V70.3633H41.7188V76H42.4219Z" fill="white"/>
<path d="M49.3828 74.9102C49.207 75.2812 48.8398 75.4805 48.2969 75.4805C47.582 75.4805 47.1172 74.9531 47.082 74.1211V74.0898H50.1094V73.832C50.1094 72.5234 49.418 71.7148 48.2812 71.7148C47.125 71.7148 46.3828 72.5742 46.3828 73.8984C46.3828 75.2305 47.1133 76.0742 48.2812 76.0742C49.2031 76.0742 49.8594 75.6289 50.0547 74.9102H49.3828ZM48.2734 72.3086C48.9414 72.3086 49.3867 72.8008 49.4023 73.5469H47.082C47.1328 72.8008 47.6016 72.3086 48.2734 72.3086Z" fill="white"/>
<path d="M51.2031 76H51.875V70.1172H51.2031V76Z" fill="white"/>
<path d="M53.2188 76H53.8906V70.1172H53.2188V76Z" fill="white"/>
<path d="M55.5547 77.5234C56.3008 77.5234 56.6367 77.2344 56.9961 76.2578L58.6406 71.7891H57.9258L56.7734 75.2539H56.7109L55.5547 71.7891H54.8281L56.3867 76.0039L56.3086 76.2539C56.1328 76.7617 55.9219 76.9453 55.5352 76.9453C55.4414 76.9453 55.3359 76.9414 55.2539 76.9258V77.5C55.3477 77.5156 55.4648 77.5234 55.5547 77.5234Z" fill="white"/>
</svg>
