<svg width="100" height="81" viewBox="0 0 100 81" fill="none" xmlns="http://www.w3.org/2000/svg">
<rect width="100" height="81" rx="4" fill="#171717"/>
<path d="M0 0H100V15H0V0Z" fill="#454545"/>
<path d="M0 66H100V81H0V66Z" fill="#0F0F0F"/>
<path d="M14 7.5C14 6.67157 14.6716 6 15.5 6H28.5C29.3284 6 30 6.67157 30 7.5C30 8.32843 29.3284 9 28.5 9H15.5C14.6716 9 14 8.32843 14 7.5Z" fill="#F776F0"/>
<path d="M45 23H76V26H45V23Z" fill="#BFB7C0"/>
<path d="M45 52C45 50.8954 45.8954 50 47 50H60C61.1046 50 62 50.8954 62 52C62 53.1046 61.1046 54 60 54H47C45.8954 54 45 53.1046 45 52Z" fill="#F776F0"/>
<path d="M45 31.5882H89V33.5882H45V31.5882Z" fill="#7C777C"/>
<path d="M45 35.8824H87V37.8824H45V35.8824Z" fill="#7C777C"/>
<path d="M45 40.1765H85V42.1765H45V40.1765Z" fill="#7C777C"/>
<path d="M14 23H38V54H14V23Z" fill="#8B8B8B"/>
<path d="M34 7.5C34 6.67157 34.6716 6 35.5 6H48.5C49.3284 6 50 6.67157 50 7.5C50 8.32843 49.3284 9 48.5 9H35.5C34.6716 9 34 8.32843 34 7.5Z" fill="#F776F0"/>
<path d="M54 7.5C54 6.67157 54.6716 6 55.5 6H68.5C69.3284 6 70 6.67157 70 7.5C70 8.32843 69.3284 9 68.5 9H55.5C54.6716 9 54 8.32843 54 7.5Z" fill="#F776F0"/>
<path d="M39.2734 76V70.3633H38.457L36.5273 75.0664H36.4648L34.5352 70.3633H33.7188V76H34.375V71.6953H34.4219L36.1992 76H36.793L38.5703 71.6953H38.6172V76H39.2734Z" fill="white"/>
<path d="M41.7969 76.0742C42.3594 76.0742 42.8203 75.8281 43.0938 75.3789H43.1562V76H43.7969V73.1172C43.7969 72.2422 43.2227 71.7148 42.1953 71.7148C41.2969 71.7148 40.6328 72.1602 40.543 72.8359H41.2227C41.3164 72.5039 41.668 72.3125 42.1719 72.3125C42.8008 72.3125 43.125 72.5977 43.125 73.1172V73.5L41.9102 73.5742C40.9297 73.6328 40.375 74.0664 40.375 74.8203C40.375 75.5898 40.9805 76.0742 41.7969 76.0742ZM41.9219 75.4844C41.4336 75.4844 41.0703 75.2344 41.0703 74.8047C41.0703 74.3828 41.3516 74.1602 41.9922 74.1172L43.125 74.043V74.4297C43.125 75.0312 42.6133 75.4844 41.9219 75.4844Z" fill="white"/>
<path d="M46.7734 77.6172C47.9219 77.6172 48.6484 77.0156 48.6484 76.0742V71.7891H48.0078V72.457H47.9453C47.7031 72.0039 47.1836 71.7148 46.5938 71.7148C45.5117 71.7148 44.8281 72.5703 44.8281 73.832C44.8281 75.0938 45.5039 75.9375 46.5938 75.9375C47.1719 75.9375 47.6484 75.6758 47.9141 75.2109H47.9766V76.0391C47.9766 76.6602 47.5273 77.0312 46.7734 77.0312C46.168 77.0312 45.793 76.8086 45.7188 76.4648H45.0078C45.1094 77.1602 45.7578 77.6172 46.7734 77.6172ZM46.7422 75.3438C45.9609 75.3438 45.5234 74.75 45.5234 73.832C45.5234 72.9141 45.9609 72.3203 46.7422 72.3203C47.5195 72.3203 47.9922 72.9141 47.9922 73.832C47.9922 74.75 47.5234 75.3438 46.7422 75.3438Z" fill="white"/>
<path d="M52.7031 74.9102C52.5273 75.2812 52.1602 75.4805 51.6172 75.4805C50.9023 75.4805 50.4375 74.9531 50.4023 74.1211V74.0898H53.4297V73.832C53.4297 72.5234 52.7383 71.7148 51.6016 71.7148C50.4453 71.7148 49.7031 72.5742 49.7031 73.8984C49.7031 75.2305 50.4336 76.0742 51.6016 76.0742C52.5234 76.0742 53.1797 75.6289 53.375 74.9102H52.7031ZM51.5938 72.3086C52.2617 72.3086 52.707 72.8008 52.7227 73.5469H50.4023C50.4531 72.8008 50.9219 72.3086 51.5938 72.3086Z" fill="white"/>
<path d="M54.4844 76H55.1562V73.5078C55.1562 72.7695 55.5898 72.3203 56.2617 72.3203C56.9336 72.3203 57.2539 72.6797 57.2539 73.4375V76H57.9258V73.2734C57.9258 72.2734 57.3984 71.7148 56.4531 71.7148C55.8086 71.7148 55.3984 71.9883 55.1875 72.4531H55.125V71.7891H54.4844V76Z" fill="white"/>
<path d="M59.4375 70.6992V71.7891H58.7578V72.3516H59.4375V74.9062C59.4375 75.7109 59.7852 76.0312 60.6523 76.0312C60.7852 76.0312 60.9141 76.0156 61.0469 75.9922V75.4258C60.9219 75.4375 60.8555 75.4414 60.7344 75.4414C60.2969 75.4414 60.1094 75.2305 60.1094 74.7344V72.3516H61.0469V71.7891H60.1094V70.6992H59.4375Z" fill="white"/>
<path d="M63.2344 76.0742C63.7969 76.0742 64.2578 75.8281 64.5312 75.3789H64.5938V76H65.2344V73.1172C65.2344 72.2422 64.6602 71.7148 63.6328 71.7148C62.7344 71.7148 62.0703 72.1602 61.9805 72.8359H62.6602C62.7539 72.5039 63.1055 72.3125 63.6094 72.3125C64.2383 72.3125 64.5625 72.5977 64.5625 73.1172V73.5L63.3477 73.5742C62.3672 73.6328 61.8125 74.0664 61.8125 74.8203C61.8125 75.5898 62.418 76.0742 63.2344 76.0742ZM63.3594 75.4844C62.8711 75.4844 62.5078 75.2344 62.5078 74.8047C62.5078 74.3828 62.7891 74.1602 63.4297 74.1172L64.5625 74.043V74.4297C64.5625 75.0312 64.0508 75.4844 63.3594 75.4844Z" fill="white"/>
</svg>
