<svg width="100" height="81" viewBox="0 0 100 81" fill="none" xmlns="http://www.w3.org/2000/svg">
<path d="M0 0H100V81H0V0Z" fill="#151819"/>
<path opacity="0.2" d="M0 0H100V15H0V0Z" fill="white"/>
<path d="M0 66H100V81H0V66Z" fill="black"/>
<path d="M14 7.5C14 6.67157 14.6716 6 15.5 6H28.5C29.3284 6 30 6.67157 30 7.5C30 8.32843 29.3284 9 28.5 9H15.5C14.6716 9 14 8.32843 14 7.5Z" fill="#DAA40B"/>
<path d="M45 23H76V26H45V23Z" fill="#D5D6D7"/>
<path d="M45 52C45 50.8954 45.8954 50 47 50H60C61.1046 50 62 50.8954 62 52C62 53.1046 61.1046 54 60 54H47C45.8954 54 45 53.1046 45 52Z" fill="#DAA40B"/>
<path opacity="0.6" d="M45 31.5883H89V33.5883H45V31.5883Z" fill="#D5D6D7"/>
<path opacity="0.6" d="M45 35.8823H87V37.8823H45V35.8823Z" fill="#D5D6D7"/>
<path opacity="0.6" d="M45 40.1765H85V42.1765H45V40.1765Z" fill="#D5D6D7"/>
<path opacity="0.5" d="M14 23H38V54H14V23Z" fill="white"/>
<path d="M34 7.5C34 6.67157 34.6716 6 35.5 6H48.5C49.3284 6 50 6.67157 50 7.5C50 8.32843 49.3284 9 48.5 9H35.5C34.6716 9 34 8.32843 34 7.5Z" fill="#DAA40B"/>
<path d="M54 7.5C54 6.67157 54.6716 6 55.5 6H68.5C69.3284 6 70 6.67157 70 7.5C70 8.32843 69.3284 9 68.5 9H55.5C54.6716 9 54 8.32843 54 7.5Z" fill="#DAA40B"/>
<path d="M40.9766 76V73.5742L42.9766 70.3633H42.1758L40.6562 72.8672H40.5938L39.0742 70.3633H38.2734L40.2734 73.5742V76H40.9766Z" fill="white"/>
<path d="M46.0078 74.9102C45.832 75.2812 45.4648 75.4805 44.9219 75.4805C44.207 75.4805 43.7422 74.9531 43.707 74.1211V74.0898H46.7344V73.832C46.7344 72.5234 46.043 71.7148 44.9062 71.7148C43.75 71.7148 43.0078 72.5742 43.0078 73.8984C43.0078 75.2305 43.7383 76.0742 44.9062 76.0742C45.8281 76.0742 46.4844 75.6289 46.6797 74.9102H46.0078ZM44.8984 72.3086C45.5664 72.3086 46.0117 72.8008 46.0273 73.5469H43.707C43.7578 72.8008 44.2266 72.3086 44.8984 72.3086Z" fill="white"/>
<path d="M47.8281 76H48.5V70.1172H47.8281V76Z" fill="white"/>
<path d="M49.8438 76H50.5156V70.1172H49.8438V76Z" fill="white"/>
<path d="M53.5508 76.0742C54.75 76.0742 55.4922 75.2461 55.4922 73.8945C55.4922 72.5391 54.75 71.7148 53.5508 71.7148C52.3516 71.7148 51.6094 72.5391 51.6094 73.8945C51.6094 75.2461 52.3516 76.0742 53.5508 76.0742ZM53.5508 75.4688C52.7539 75.4688 52.3047 74.8906 52.3047 73.8945C52.3047 72.8945 52.7539 72.3203 53.5508 72.3203C54.3477 72.3203 54.7969 72.8945 54.7969 73.8945C54.7969 74.8906 54.3477 75.4688 53.5508 75.4688Z" fill="white"/>
<path d="M61.6875 71.7891H61.0117L60.1836 75.1562H60.1211L59.1797 71.7891H58.5352L57.5938 75.1562H57.5312L56.7031 71.7891H56.0234L57.2031 76H57.8828L58.8203 72.7422H58.8828L59.8242 76H60.5078L61.6875 71.7891Z" fill="white"/>
</svg>
