<svg width="100" height="81" viewBox="0 0 100 81" fill="none" xmlns="http://www.w3.org/2000/svg">
<g clip-path="url(#clip0)">
<path d="M0 0H100V81H0V0Z" fill="#18191A"/>
<path opacity="0.2" d="M0 0H100V15H0V0Z" fill="white"/>
<path d="M0 66H100V81H0V66Z" fill="black"/>
<path d="M14 7.5C14 6.67157 14.6716 6 15.5 6H28.5C29.3284 6 30 6.67157 30 7.5C30 8.32843 29.3284 9 28.5 9H15.5C14.6716 9 14 8.32843 14 7.5Z" fill="#4294FF"/>
<path d="M45 23H76V26H45V23Z" fill="#E4E6EB"/>
<path d="M45 52C45 50.8954 45.8954 50 47 50H60C61.1046 50 62 50.8954 62 52C62 53.1046 61.1046 54 60 54H47C45.8954 54 45 53.1046 45 52Z" fill="#4294FF"/>
<path opacity="0.6" d="M45 31.5883H89V33.5883H45V31.5883Z" fill="#E4E6EB"/>
<path opacity="0.6" d="M45 35.8823H87V37.8823H45V35.8823Z" fill="#E4E6EB"/>
<path opacity="0.6" d="M45 40.1765H85V42.1765H45V40.1765Z" fill="#E4E6EB"/>
<path opacity="0.5" d="M14 23H38V54H14V23Z" fill="white"/>
<path d="M34 7.5C34 6.67157 34.6716 6 35.5 6H48.5C49.3284 6 50 6.67157 50 7.5C50 8.32843 49.3284 9 48.5 9H35.5C34.6716 9 34 8.32843 34 7.5Z" fill="#4294FF"/>
<path d="M54 7.5C54 6.67157 54.6716 6 55.5 6H68.5C69.3284 6 70 6.67157 70 7.5C70 8.32843 69.3284 9 68.5 9H55.5C54.6716 9 54 8.32843 54 7.5Z" fill="#4294FF"/>
<path d="M33.4219 76V73.5586H35.918V72.9336H33.4219V70.9961H36.1406V70.3633H32.7188V76H33.4219Z" fill="white"/>
<path d="M38.1094 76.0742C38.6719 76.0742 39.1328 75.8281 39.4062 75.3789H39.4688V76H40.1094V73.1172C40.1094 72.2422 39.5352 71.7148 38.5078 71.7148C37.6094 71.7148 36.9453 72.1602 36.8555 72.8359H37.5352C37.6289 72.5039 37.9805 72.3125 38.4844 72.3125C39.1133 72.3125 39.4375 72.5977 39.4375 73.1172V73.5L38.2227 73.5742C37.2422 73.6328 36.6875 74.0664 36.6875 74.8203C36.6875 75.5898 37.293 76.0742 38.1094 76.0742ZM38.2344 75.4844C37.7461 75.4844 37.3828 75.2344 37.3828 74.8047C37.3828 74.3828 37.6641 74.1602 38.3047 74.1172L39.4375 74.043V74.4297C39.4375 75.0312 38.9258 75.4844 38.2344 75.4844Z" fill="white"/>
<path d="M44.8359 73.0781C44.7188 72.3281 44.0938 71.7148 43.0703 71.7148C41.8906 71.7148 41.1406 72.5664 41.1406 73.8789C41.1406 75.2188 41.8945 76.0742 43.0742 76.0742C44.0859 76.0742 44.7148 75.5039 44.8359 74.7305H44.1562C44.0312 75.207 43.6367 75.4688 43.0703 75.4688C42.3203 75.4688 41.8359 74.8516 41.8359 73.8789C41.8359 72.9258 42.3125 72.3203 43.0703 72.3203C43.6758 72.3203 44.0469 72.6602 44.1562 73.0781H44.8359Z" fill="white"/>
<path d="M48.6172 74.9102C48.4414 75.2812 48.0742 75.4805 47.5312 75.4805C46.8164 75.4805 46.3516 74.9531 46.3164 74.1211V74.0898H49.3438V73.832C49.3438 72.5234 48.6523 71.7148 47.5156 71.7148C46.3594 71.7148 45.6172 72.5742 45.6172 73.8984C45.6172 75.2305 46.3477 76.0742 47.5156 76.0742C48.4375 76.0742 49.0938 75.6289 49.2891 74.9102H48.6172ZM47.5078 72.3086C48.1758 72.3086 48.6211 72.8008 48.6367 73.5469H46.3164C46.3672 72.8008 46.8359 72.3086 47.5078 72.3086Z" fill="white"/>
<path d="M52.4922 76.0742C53.5586 76.0742 54.2578 75.2109 54.2578 73.8945C54.2578 72.5703 53.5625 71.7148 52.4922 71.7148C51.9141 71.7148 51.4023 72 51.1719 72.4531H51.1094V70.1172H50.4375V76H51.0781V75.3281H51.1406C51.4062 75.7969 51.9062 76.0742 52.4922 76.0742ZM52.3359 72.3203C53.1055 72.3203 53.5625 72.9102 53.5625 73.8945C53.5625 74.8789 53.1055 75.4688 52.3359 75.4688C51.5703 75.4688 51.0938 74.8672 51.0938 73.8945C51.0938 72.9219 51.5703 72.3203 52.3359 72.3203Z" fill="white"/>
<path d="M57.043 76.0742C58.2422 76.0742 58.9844 75.2461 58.9844 73.8945C58.9844 72.5391 58.2422 71.7148 57.043 71.7148C55.8438 71.7148 55.1016 72.5391 55.1016 73.8945C55.1016 75.2461 55.8438 76.0742 57.043 76.0742ZM57.043 75.4688C56.2461 75.4688 55.7969 74.8906 55.7969 73.8945C55.7969 72.8945 56.2461 72.3203 57.043 72.3203C57.8398 72.3203 58.2891 72.8945 58.2891 73.8945C58.2891 74.8906 57.8398 75.4688 57.043 75.4688Z" fill="white"/>
<path d="M61.7695 76.0742C62.9688 76.0742 63.7109 75.2461 63.7109 73.8945C63.7109 72.5391 62.9688 71.7148 61.7695 71.7148C60.5703 71.7148 59.8281 72.5391 59.8281 73.8945C59.8281 75.2461 60.5703 76.0742 61.7695 76.0742ZM61.7695 75.4688C60.9727 75.4688 60.5234 74.8906 60.5234 73.8945C60.5234 72.8945 60.9727 72.3203 61.7695 72.3203C62.5664 72.3203 63.0156 72.8945 63.0156 73.8945C63.0156 74.8906 62.5664 75.4688 61.7695 75.4688Z" fill="white"/>
<path d="M65.5391 73.6289H65.4766V70.1172H64.8047V76H65.4766V74.4023L65.8789 74.0273L67.457 76H68.3125L66.3789 73.5938L68.1914 71.7891H67.3672L65.5391 73.6289Z" fill="white"/>
</g>
<defs>
<clipPath id="clip0">
<rect width="100" height="81" fill="white"/>
</clipPath>
</defs>
</svg>
