<svg width="100" height="81" viewBox="0 0 100 81" fill="none" xmlns="http://www.w3.org/2000/svg">
<g clip-path="url(#clip0)">
<path d="M0 0H100V81H0V0Z" fill="#141D26"/>
<path opacity="0.2" d="M0 0H100V15H0V0Z" fill="white"/>
<path d="M0 66H100V81H0V66Z" fill="black"/>
<path d="M14 7.5C14 6.67157 14.6716 6 15.5 6H28.5C29.3284 6 30 6.67157 30 7.5C30 8.32843 29.3284 9 28.5 9H15.5C14.6716 9 14 8.32843 14 7.5Z" fill="#1DA1F2"/>
<path d="M45 23H76V26H45V23Z" fill="#D9D9D9"/>
<path d="M45 52C45 50.8954 45.8954 50 47 50H60C61.1046 50 62 50.8954 62 52C62 53.1046 61.1046 54 60 54H47C45.8954 54 45 53.1046 45 52Z" fill="#1DA1F2"/>
<path opacity="0.6" d="M45 31.5883H89V33.5883H45V31.5883Z" fill="#D9D9D9"/>
<path opacity="0.6" d="M45 35.8823H87V37.8823H45V35.8823Z" fill="#D9D9D9"/>
<path opacity="0.6" d="M45 40.1765H85V42.1765H45V40.1765Z" fill="#D9D9D9"/>
<path opacity="0.5" d="M14 23H38V54H14V23Z" fill="white"/>
<path d="M34 7.5C34 6.67157 34.6716 6 35.5 6H48.5C49.3284 6 50 6.67157 50 7.5C50 8.32843 49.3284 9 48.5 9H35.5C34.6716 9 34 8.32843 34 7.5Z" fill="#1DA1F2"/>
<path d="M54 7.5C54 6.67157 54.6716 6 55.5 6H68.5C69.3284 6 70 6.67157 70 7.5C70 8.32843 69.3284 9 68.5 9H55.5C54.6716 9 54 8.32843 54 7.5Z" fill="#1DA1F2"/>
<path d="M39.8867 76V70.9961H41.7031V70.3633H37.3672V70.9961H39.1836V76H39.8867Z" fill="white"/>
<path d="M47.4922 71.7891H46.8164L45.9883 75.1562H45.9258L44.9844 71.7891H44.3398L43.3984 75.1562H43.3359L42.5078 71.7891H41.8281L43.0078 76H43.6875L44.625 72.7422H44.6875L45.6289 76H46.3125L47.4922 71.7891Z" fill="white"/>
<path d="M48.7422 70.9766C49 70.9766 49.2109 70.7656 49.2109 70.5078C49.2109 70.25 49 70.0391 48.7422 70.0391C48.4844 70.0391 48.2734 70.25 48.2734 70.5078C48.2734 70.7656 48.4844 70.9766 48.7422 70.9766ZM48.4062 76H49.0781V71.7891H48.4062V76Z" fill="white"/>
<path d="M50.6406 70.6992V71.7891H49.9609V72.3516H50.6406V74.9062C50.6406 75.7109 50.9883 76.0312 51.8555 76.0312C51.9883 76.0312 52.1172 76.0156 52.25 75.9922V75.4258C52.125 75.4375 52.0586 75.4414 51.9375 75.4414C51.5 75.4414 51.3125 75.2305 51.3125 74.7344V72.3516H52.25V71.7891H51.3125V70.6992H50.6406Z" fill="white"/>
<path d="M53.5469 70.6992V71.7891H52.8672V72.3516H53.5469V74.9062C53.5469 75.7109 53.8945 76.0312 54.7617 76.0312C54.8945 76.0312 55.0234 76.0156 55.1562 75.9922V75.4258C55.0312 75.4375 54.9648 75.4414 54.8438 75.4414C54.4062 75.4414 54.2188 75.2305 54.2188 74.7344V72.3516H55.1562V71.7891H54.2188V70.6992H53.5469Z" fill="white"/>
<path d="M58.8984 74.9102C58.7227 75.2812 58.3555 75.4805 57.8125 75.4805C57.0977 75.4805 56.6328 74.9531 56.5977 74.1211V74.0898H59.625V73.832C59.625 72.5234 58.9336 71.7148 57.7969 71.7148C56.6406 71.7148 55.8984 72.5742 55.8984 73.8984C55.8984 75.2305 56.6289 76.0742 57.7969 76.0742C58.7188 76.0742 59.375 75.6289 59.5703 74.9102H58.8984ZM57.7891 72.3086C58.457 72.3086 58.9023 72.8008 58.918 73.5469H56.5977C56.6484 72.8008 57.1172 72.3086 57.7891 72.3086Z" fill="white"/>
<path d="M60.6797 76H61.3516V73.3906C61.3516 72.7969 61.8164 72.3672 62.457 72.3672C62.5898 72.3672 62.832 72.3906 62.8867 72.4062V71.7344C62.8008 71.7227 62.6602 71.7148 62.5508 71.7148C61.9922 71.7148 61.5078 72.0039 61.3828 72.4141H61.3203V71.7891H60.6797V76Z" fill="white"/>
</g>
<defs>
<clipPath id="clip0">
<rect width="100" height="81" fill="white"/>
</clipPath>
</defs>
</svg>
