<svg width="100" height="81" viewBox="0 0 100 81" fill="none" xmlns="http://www.w3.org/2000/svg">
<path d="M0 0H100V81H0V0Z" fill="#1E0024"/>
<path opacity="0.2" d="M0 0H100V15H0V0Z" fill="white"/>
<path d="M0 66H100V81H0V66Z" fill="black"/>
<path d="M14 7.5C14 6.67157 14.6716 6 15.5 6H28.5C29.3284 6 30 6.67157 30 7.5C30 8.32843 29.3284 9 28.5 9H15.5C14.6716 9 14 8.32843 14 7.5Z" fill="#E251FF"/>
<path d="M45 23H76V26H45V23Z" fill="white"/>
<path d="M45 52C45 50.8954 45.8954 50 47 50H60C61.1046 50 62 50.8954 62 52C62 53.1046 61.1046 54 60 54H47C45.8954 54 45 53.1046 45 52Z" fill="#E251FF"/>
<path opacity="0.6" d="M45 35.8823H87V37.8823H45V35.8823Z" fill="white"/>
<path opacity="0.6" d="M45 40.1765H85V42.1765H45V40.1765Z" fill="white"/>
<path opacity="0.5" d="M14 23H38V54H14V23Z" fill="white"/>
<path d="M34 7.5C34 6.67157 34.6716 6 35.5 6H48.5C49.3284 6 50 6.67157 50 7.5C50 8.32843 49.3284 9 48.5 9H35.5C34.6716 9 34 8.32843 34 7.5Z" fill="#E251FF"/>
<path d="M54 7.5C54 6.67157 54.6716 6 55.5 6H68.5C69.3284 6 70 6.67157 70 7.5C70 8.32843 69.3284 9 68.5 9H55.5C54.6716 9 54 8.32843 54 7.5Z" fill="#E251FF"/>
<path d="M36.4219 76V73.5586H38.918V72.9336H36.4219V70.9961H39.1406V70.3633H35.7188V76H36.4219Z" fill="white"/>
<path d="M43.6172 71.7891H42.9453V74.2812C42.9453 75.0195 42.5391 75.4609 41.7969 75.4609C41.125 75.4609 40.8438 75.1094 40.8438 74.3516V71.7891H40.1719V74.5156C40.1719 75.5117 40.6641 76.0742 41.6094 76.0742C42.2539 76.0742 42.7031 75.8086 42.9141 75.3398H42.9766V76H43.6172V71.7891Z" fill="white"/>
<path d="M48.3672 73.0781C48.25 72.3281 47.625 71.7148 46.6016 71.7148C45.4219 71.7148 44.6719 72.5664 44.6719 73.8789C44.6719 75.2188 45.4258 76.0742 46.6055 76.0742C47.6172 76.0742 48.2461 75.5039 48.3672 74.7305H47.6875C47.5625 75.207 47.168 75.4688 46.6016 75.4688C45.8516 75.4688 45.3672 74.8516 45.3672 73.8789C45.3672 72.9258 45.8438 72.3203 46.6016 72.3203C47.207 72.3203 47.5781 72.6602 47.6875 73.0781H48.3672Z" fill="white"/>
<path d="M49.3984 76H50.0703V73.5078C50.0703 72.7969 50.4844 72.3203 51.2383 72.3203C51.875 72.3203 52.2109 72.6914 52.2109 73.4375V76H52.8828V73.2734C52.8828 72.2852 52.3203 71.7148 51.4297 71.7148C50.7852 71.7148 50.3438 71.9883 50.1328 72.4531H50.0703V70.1172H49.3984V76Z" fill="white"/>
<path d="M54.0117 72.9414C54.0117 73.5508 54.3711 73.8906 55.1602 74.082L55.8828 74.2578C56.332 74.3672 56.5508 74.5625 56.5508 74.8516C56.5508 75.2383 56.1445 75.5078 55.5781 75.5078C55.0391 75.5078 54.7031 75.2812 54.5898 74.9258H53.8984C53.9727 75.625 54.6172 76.0742 55.5547 76.0742C56.5117 76.0742 57.2422 75.5547 57.2422 74.8008C57.2422 74.1953 56.8594 73.8516 56.0664 73.6602L55.418 73.5039C54.9219 73.3828 54.6875 73.2031 54.6875 72.9141C54.6875 72.5391 55.0781 72.2852 55.5781 72.2852C56.0859 72.2852 56.4141 72.5078 56.5039 72.8438H57.168C57.0781 72.1523 56.4648 71.7148 55.582 71.7148C54.6875 71.7148 54.0117 72.2422 54.0117 72.9414Z" fill="white"/>
<path d="M58.6484 70.9766C58.9062 70.9766 59.1172 70.7656 59.1172 70.5078C59.1172 70.25 58.9062 70.0391 58.6484 70.0391C58.3906 70.0391 58.1797 70.25 58.1797 70.5078C58.1797 70.7656 58.3906 70.9766 58.6484 70.9766ZM58.3125 76H58.9844V71.7891H58.3125V76Z" fill="white"/>
<path d="M61.4375 76.0742C62 76.0742 62.4609 75.8281 62.7344 75.3789H62.7969V76H63.4375V73.1172C63.4375 72.2422 62.8633 71.7148 61.8359 71.7148C60.9375 71.7148 60.2734 72.1602 60.1836 72.8359H60.8633C60.957 72.5039 61.3086 72.3125 61.8125 72.3125C62.4414 72.3125 62.7656 72.5977 62.7656 73.1172V73.5L61.5508 73.5742C60.5703 73.6328 60.0156 74.0664 60.0156 74.8203C60.0156 75.5898 60.6211 76.0742 61.4375 76.0742ZM61.5625 75.4844C61.0742 75.4844 60.7109 75.2344 60.7109 74.8047C60.7109 74.3828 60.9922 74.1602 61.6328 74.1172L62.7656 74.043V74.4297C62.7656 75.0312 62.2539 75.4844 61.5625 75.4844Z" fill="white"/>
<path opacity="0.6" d="M45 31.5883H89V33.5883H45V31.5883Z" fill="white"/>
</svg>
