<svg width="100" height="81" viewBox="0 0 100 81" fill="none" xmlns="http://www.w3.org/2000/svg">
<g clip-path="url(#clip0)">
<path d="M0 0H100V81H0V0Z" fill="#121212"/>
<path opacity="0.2" d="M0 0H100V15H0V0Z" fill="white"/>
<path d="M0 66H100V81H0V66Z" fill="black"/>
<path d="M14 7.5C14 6.67157 14.6716 6 15.5 6H28.5C29.3284 6 30 6.67157 30 7.5C30 8.32843 29.3284 9 28.5 9H15.5C14.6716 9 14 8.32843 14 7.5Z" fill="#FF9191"/>
<path d="M45 23H76V26H45V23Z" fill="#E6E6E6"/>
<path d="M45 52C45 50.8954 45.8954 50 47 50H60C61.1046 50 62 50.8954 62 52C62 53.1046 61.1046 54 60 54H47C45.8954 54 45 53.1046 45 52Z" fill="#FF9191"/>
<path opacity="0.6" d="M45 31.5883H89V33.5883H45V31.5883Z" fill="#E6E6E6"/>
<path opacity="0.6" d="M45 35.8823H87V37.8823H45V35.8823Z" fill="#E6E6E6"/>
<path opacity="0.6" d="M45 40.1765H85V42.1765H45V40.1765Z" fill="#E6E6E6"/>
<path opacity="0.5" d="M14 23H38V54H14V23Z" fill="white"/>
<path d="M34 7.5C34 6.67157 34.6716 6 35.5 6H48.5C49.3284 6 50 6.67157 50 7.5C50 8.32843 49.3284 9 48.5 9H35.5C34.6716 9 34 8.32843 34 7.5Z" fill="#FF9191"/>
<path d="M54 7.5C54 6.67157 54.6716 6 55.5 6H68.5C69.3284 6 70 6.67157 70 7.5C70 8.32843 69.3284 9 68.5 9H55.5C54.6716 9 54 8.32843 54 7.5Z" fill="#FF9191"/>
<path d="M41.7188 70.3633V76H42.4219V73.9883H43.8398C44.8984 73.9883 45.6523 73.2422 45.6523 72.1875C45.6523 71.1133 44.9141 70.3633 43.8477 70.3633H41.7188ZM42.4219 70.9883H43.6641C44.4805 70.9883 44.9297 71.4141 44.9297 72.1875C44.9297 72.9336 44.4648 73.3633 43.6641 73.3633H42.4219V70.9883Z" fill="white"/>
<path d="M47.0703 70.9766C47.3281 70.9766 47.5391 70.7656 47.5391 70.5078C47.5391 70.25 47.3281 70.0391 47.0703 70.0391C46.8125 70.0391 46.6016 70.25 46.6016 70.5078C46.6016 70.7656 46.8125 70.9766 47.0703 70.9766ZM46.7344 76H47.4062V71.7891H46.7344V76Z" fill="white"/>
<path d="M48.6875 76H49.3594V73.5078C49.3594 72.7695 49.793 72.3203 50.4648 72.3203C51.1367 72.3203 51.457 72.6797 51.457 73.4375V76H52.1289V73.2734C52.1289 72.2734 51.6016 71.7148 50.6562 71.7148C50.0117 71.7148 49.6016 71.9883 49.3906 72.4531H49.3281V71.7891H48.6875V76Z" fill="white"/>
<path d="M54.1328 73.6289H54.0703V70.1172H53.3984V76H54.0703V74.4023L54.4727 74.0273L56.0508 76H56.9062L54.9727 73.5938L56.7852 71.7891H55.9609L54.1328 73.6289Z" fill="white"/>
</g>
<defs>
<clipPath id="clip0">
<rect width="100" height="81" fill="white"/>
</clipPath>
</defs>
</svg>
