<svg width="100" height="81" viewBox="0 0 100 81" fill="none" xmlns="http://www.w3.org/2000/svg">
<path d="M0 0H100V81H0V0Z" fill="#003711"/>
<path opacity="0.2" d="M0 0H100V15H0V0Z" fill="white"/>
<path d="M0 66H100V81H0V66Z" fill="black"/>
<path d="M14 7.5C14 6.67157 14.6716 6 15.5 6H28.5C29.3284 6 30 6.67157 30 7.5C30 8.32843 29.3284 9 28.5 9H15.5C14.6716 9 14 8.32843 14 7.5Z" fill="#84FF6D"/>
<path d="M45 23H76V26H45V23Z" fill="#F3F3F3"/>
<path d="M45 52C45 50.8954 45.8954 50 47 50H60C61.1046 50 62 50.8954 62 52C62 53.1046 61.1046 54 60 54H47C45.8954 54 45 53.1046 45 52Z" fill="#84FF6D"/>
<path opacity="0.6" d="M45 31.5883H89V33.5883H45V31.5883Z" fill="#F3F3F3"/>
<path opacity="0.6" d="M45 35.8823H87V37.8823H45V35.8823Z" fill="#F3F3F3"/>
<path opacity="0.6" d="M45 40.1765H85V42.1765H45V40.1765Z" fill="#F3F3F3"/>
<path opacity="0.5" d="M14 23H38V54H14V23Z" fill="white"/>
<path d="M34 7.5C34 6.67157 34.6716 6 35.5 6H48.5C49.3284 6 50 6.67157 50 7.5C50 8.32843 49.3284 9 48.5 9H35.5C34.6716 9 34 8.32843 34 7.5Z" fill="#84FF6D"/>
<path d="M54 7.5C54 6.67157 54.6716 6 55.5 6H68.5C69.3284 6 70 6.67157 70 7.5C70 8.32843 69.3284 9 68.5 9H55.5C54.6716 9 54 8.32843 54 7.5Z" fill="#84FF6D"/>
<path d="M43.4492 73.8203V73.1328H41.1641V73.75H42.75V73.8867C42.75 74.8398 42.0664 75.4844 41.0586 75.4844C39.9258 75.4844 39.2227 74.6016 39.2227 73.1797C39.2227 71.7773 39.9375 70.8789 41.0547 70.8789C41.8906 70.8789 42.457 71.2812 42.6992 72.043H43.4141C43.2109 70.9258 42.3047 70.2305 41.0547 70.2305C39.5117 70.2305 38.5 71.3984 38.5 73.1797C38.5 74.9844 39.4961 76.1328 41.0547 76.1328C42.4961 76.1328 43.4492 75.2109 43.4492 73.8203Z" fill="white"/>
<path d="M44.6094 76H45.2812V73.3906C45.2812 72.7969 45.7461 72.3672 46.3867 72.3672C46.5195 72.3672 46.7617 72.3906 46.8164 72.4062V71.7344C46.7305 71.7227 46.5898 71.7148 46.4805 71.7148C45.9219 71.7148 45.4375 72.0039 45.3125 72.4141H45.25V71.7891H44.6094V76Z" fill="white"/>
<path d="M50.3281 74.9102C50.1523 75.2812 49.7852 75.4805 49.2422 75.4805C48.5273 75.4805 48.0625 74.9531 48.0273 74.1211V74.0898H51.0547V73.832C51.0547 72.5234 50.3633 71.7148 49.2266 71.7148C48.0703 71.7148 47.3281 72.5742 47.3281 73.8984C47.3281 75.2305 48.0586 76.0742 49.2266 76.0742C50.1484 76.0742 50.8047 75.6289 51 74.9102H50.3281ZM49.2188 72.3086C49.8867 72.3086 50.332 72.8008 50.3477 73.5469H48.0273C48.0781 72.8008 48.5469 72.3086 49.2188 72.3086Z" fill="white"/>
<path d="M54.8984 74.9102C54.7227 75.2812 54.3555 75.4805 53.8125 75.4805C53.0977 75.4805 52.6328 74.9531 52.5977 74.1211V74.0898H55.625V73.832C55.625 72.5234 54.9336 71.7148 53.7969 71.7148C52.6406 71.7148 51.8984 72.5742 51.8984 73.8984C51.8984 75.2305 52.6289 76.0742 53.7969 76.0742C54.7188 76.0742 55.375 75.6289 55.5703 74.9102H54.8984ZM53.7891 72.3086C54.457 72.3086 54.9023 72.8008 54.918 73.5469H52.5977C52.6484 72.8008 53.1172 72.3086 53.7891 72.3086Z" fill="white"/>
<path d="M56.6797 76H57.3516V73.5078C57.3516 72.7695 57.7852 72.3203 58.457 72.3203C59.1289 72.3203 59.4492 72.6797 59.4492 73.4375V76H60.1211V73.2734C60.1211 72.2734 59.5938 71.7148 58.6484 71.7148C58.0039 71.7148 57.5938 71.9883 57.3828 72.4531H57.3203V71.7891H56.6797V76Z" fill="white"/>
</svg>
