<svg width="182" height="182" viewBox="0 0 182 182" fill="none" xmlns="http://www.w3.org/2000/svg">
<path d="M172 119.337C156.715 125.484 139.96 127.002 123.819 123.705C107.677 120.407 92.8608 112.438 81.2113 100.789C69.5619 89.1392 61.593 74.3228 58.2953 58.1814C54.9976 42.0399 56.5165 25.2853 62.6632 10C44.5622 17.291 29.5611 30.6514 20.2315 47.7909C10.9018 64.9304 7.82475 84.7814 11.5277 103.941C15.2307 123.101 25.4831 140.376 40.5274 152.804C55.5717 165.233 74.4708 172.042 93.985 172.063C110.766 172.063 127.163 167.042 141.066 157.646C154.969 148.249 165.743 134.907 172 119.337Z" stroke="white" stroke-width="18.6773" stroke-linecap="round" stroke-linejoin="round"/>
</svg>
