<svg enable-background="new 0 0 100 100" viewBox="0 0 100 100" xmlns="http://www.w3.org/2000/svg"><g fill="#5453fd"><path d="m50 0c-14.3 0-26 11.7-26 26s11.7 26 26 26 26-11.7 26-26-11.7-26-26-26z"/><path d="m94.6 72.7c-.7-1.7-1.6-3.3-2.6-4.8-5.2-7.7-13.3-12.8-22.3-14.1-1.1-.1-2.4.1-3.3.8-4.8 3.6-10.5 5.4-16.4 5.4s-11.6-1.8-16.3-5.3c-.9-.7-2.2-1-3.3-.8-9.1 1.2-17.2 6.3-22.3 14.1-1 1.5-1.9 3.2-2.6 4.8-.3.7-.2 1.5.1 2.2.9 1.6 2 3.2 3.1 4.5 1.6 2.2 3.3 4.1 5.2 5.9 1.6 1.6 3.4 3.1 5.2 4.5 9 6.7 19.7 10.2 30.8 10.2s21.9-3.5 30.8-10.2c1.8-1.4 3.6-2.9 5.2-4.5 1.8-1.8 3.6-3.7 5.2-5.9 1.1-1.5 2.2-2.9 3.1-4.5.6-.9.7-1.6.4-2.3z"/></g></svg>