<svg xmlns="http://www.w3.org/2000/svg" viewBox="0 0 215 80.78"><defs><style>.cls-1{fill:#2d2d2d;}.cls-2{fill:#e8e8e8;}.cls-3{fill:#ee4825;}.cls-4{fill:#ff631a;}</style></defs><g id="Layer_2" data-name="Layer 2"><g id="Layer_1-2" data-name="Layer 1"><g id="Offer"><rect class="cls-1" width="161.56" height="53" rx="26.5"/><ellipse class="cls-2" cx="186.36" cy="53.59" rx="30.39" ry="25.21" transform="translate(5.07 122.41) rotate(-36.83)"/><path class="cls-2" d="M182.29,52.58c0,.32,0,.65,0,1-.37-5.4-3.88-9.62-8.14-9.62H106.18a7.39,7.39,0,0,0-5.79,3.1A12,12,0,0,0,98,53.54c0-.31,0-.64,0-1a12.28,12.28,0,0,1,2.39-7.47,7.36,7.36,0,0,1,5.79-3.1h67.93C178.62,42,182.29,46.74,182.29,52.58Z"/><path class="cls-2" d="M182.25,53.54a11.92,11.92,0,0,1-2.36,6.51,7.35,7.35,0,0,1-5.78,3.11H106.18c-4.27,0-7.77-4.23-8.14-9.62a8.08,8.08,0,0,1,.09-.86c.69,4.94,4,8.7,8.05,8.7h67.93a7.34,7.34,0,0,0,5.78-3.1,11.73,11.73,0,0,0,2.27-5.65C182.2,52.93,182.23,53.23,182.25,53.54Z"/><path class="cls-2" d="M182.16,52.63a11.73,11.73,0,0,1-2.27,5.65,7.34,7.34,0,0,1-5.78,3.1H106.18c-4,0-7.36-3.76-8.05-8.7A11.82,11.82,0,0,1,100.39,47a7.39,7.39,0,0,1,5.79-3.1h67.93C178.13,43.92,181.48,47.67,182.16,52.63Z"/><path class="cls-3" d="M113,56.69a2.86,2.86,0,0,1-1.21-1.12A3,3,0,0,1,111.4,54a2.2,2.2,0,0,1,0-.44,3.79,3.79,0,0,1,.07-.45l1.26-6h1.56l-1.26,6a3,3,0,0,0-.06.42,2.75,2.75,0,0,0,0,.4,2,2,0,0,0,.28.95,1.62,1.62,0,0,0,.73.63,3.11,3.11,0,0,0,2.42,0,2.66,2.66,0,0,0,.94-.76,3,3,0,0,0,.53-1.2l1.36-6.36h1.55l-1.42,6.7a4.44,4.44,0,0,1-.8,1.79,3.79,3.79,0,0,1-1.47,1.14,5.26,5.26,0,0,1-2.11.39A4.26,4.26,0,0,1,113,56.69Z"/><path class="cls-3" d="M119.82,59.33l2-9.61h1.44l-.25,1.13h0a2.53,2.53,0,0,1,1-.9,2.6,2.6,0,0,1,1.3-.34,2.51,2.51,0,0,1,1.39.37,2.44,2.44,0,0,1,.9,1.05,3.74,3.74,0,0,1,.32,1.6,5.57,5.57,0,0,1-.27,1.77,4.54,4.54,0,0,1-.76,1.41,3.59,3.59,0,0,1-1.13.93,3.12,3.12,0,0,1-1.42.33,2.56,2.56,0,0,1-1-.2,2.18,2.18,0,0,1-.78-.54,2,2,0,0,1-.47-.79h0l-.81,3.79Zm5.3-3.8a2.2,2.2,0,0,0,.71-.62,2.73,2.73,0,0,0,.48-.93,3.68,3.68,0,0,0,.17-1.17,2.1,2.1,0,0,0-.43-1.41,1.45,1.45,0,0,0-1.18-.51,1.91,1.91,0,0,0-1,.25,2.35,2.35,0,0,0-.74.67,3.36,3.36,0,0,0-.47,1,3.9,3.9,0,0,0-.16,1.15,1.85,1.85,0,0,0,.46,1.31,1.58,1.58,0,0,0,1.23.51A2,2,0,0,0,125.12,55.53Z"/><path class="cls-3" d="M134.29,56.94l1.81-8.47H133l.28-1.39H141l-.28,1.39h-3.09l-1.81,8.47Z"/><path class="cls-3" d="M144.61,50a2.75,2.75,0,0,1,1.08,1.11,3.6,3.6,0,0,1,.38,1.69,4.92,4.92,0,0,1-.29,1.69,4.18,4.18,0,0,1-.8,1.36,3.7,3.7,0,0,1-1.2.92,3.51,3.51,0,0,1-1.51.33,3.19,3.19,0,0,1-1.64-.4,2.71,2.71,0,0,1-1.08-1.12,3.47,3.47,0,0,1-.39-1.68,4.93,4.93,0,0,1,.29-1.7,4.18,4.18,0,0,1,.8-1.36,3.67,3.67,0,0,1,1.2-.91,3.52,3.52,0,0,1,1.52-.33A3.35,3.35,0,0,1,144.61,50Zm-1.14,5.41a2.59,2.59,0,0,0,.82-1.06,3.89,3.89,0,0,0,.29-1.52,2.08,2.08,0,0,0-.45-1.4,1.44,1.44,0,0,0-1.19-.53,2,2,0,0,0-1.18.38,2.59,2.59,0,0,0-.82,1.06,3.89,3.89,0,0,0-.29,1.52,2.14,2.14,0,0,0,.44,1.41,1.48,1.48,0,0,0,1.2.54A1.87,1.87,0,0,0,143.47,55.4Z"/><path class="cls-3" d="M167.25,74.48a3.86,3.86,0,0,1-1.5-1.5,4.61,4.61,0,0,1-.52-2.2,7,7,0,0,1,.4-2.38,5.76,5.76,0,0,1,1.13-1.89,5.06,5.06,0,0,1,1.69-1.25,5,5,0,0,1,2.09-.43,4.63,4.63,0,0,1,2.3.54,3.65,3.65,0,0,1,1.49,1.5,4.5,4.5,0,0,1,.52,2.2,6.76,6.76,0,0,1-.4,2.38,5.76,5.76,0,0,1-1.13,1.89,5,5,0,0,1-1.69,1.24,4.87,4.87,0,0,1-2.09.44A4.59,4.59,0,0,1,167.25,74.48Zm2-7.56a3.21,3.21,0,0,0-1,.87,4.55,4.55,0,0,0-.66,1.3,5,5,0,0,0-.24,1.57,3.2,3.2,0,0,0,.27,1.36,2.11,2.11,0,0,0,.79.9,2.17,2.17,0,0,0,1.18.32,2.55,2.55,0,0,0,1.25-.32,3,3,0,0,0,1-.87,4.32,4.32,0,0,0,.67-1.3,5,5,0,0,0,.24-1.57,3.17,3.17,0,0,0-.28-1.36,2.13,2.13,0,0,0-.78-.89,2.23,2.23,0,0,0-1.19-.32A2.55,2.55,0,0,0,169.25,66.92Z"/><path class="cls-3" d="M176.54,74.86l2.1-9.87h6.47l-.37,1.77h-4.32l-.56,2.57h3.94L183.44,71h-3.93l-.83,3.85Z"/><path class="cls-3" d="M185.65,74.86l2.1-9.87h6.47l-.37,1.77h-4.32L189,69.33h3.93L192.55,71h-3.93l-.83,3.85Z"/><path class="cls-3" d="M176.72,43.87v-.11h-9.6l.84-4H183l-.86,4L170.46,60.15h-5.63Z"/><path class="cls-3" d="M186.08,59.59a6.83,6.83,0,0,1-2.67-2.28,5.5,5.5,0,0,1-.95-3.1c0-.08,0-.15,0-.21a.92.92,0,0,0,0-.16v-.13h4.69a2.83,2.83,0,0,0,.49,1.46,3,3,0,0,0,1.16,1,3.72,3.72,0,0,0,1.63.35,3.62,3.62,0,0,0,1.76-.44,3.51,3.51,0,0,0,1.34-4.61,2.78,2.78,0,0,0-1.08-1.07,3.34,3.34,0,0,0-1.62-.38,4.11,4.11,0,0,0-1.15.17,4.56,4.56,0,0,0-1,.48,3.23,3.23,0,0,0-.81.75h-4.68l3.5-11.63h13.49l-.89,4h-9.37l-1.48,4.59h.1a4.84,4.84,0,0,1,1.87-1.3A6.69,6.69,0,0,1,193,46.6a5.89,5.89,0,0,1,2.95.73A5.37,5.37,0,0,1,198,49.4a6.26,6.26,0,0,1,.77,3.11,7.5,7.5,0,0,1-1.09,4.2,7.79,7.79,0,0,1-3.08,2.83,10.1,10.1,0,0,1-8.49.05Z"/><path class="cls-3" d="M202.78,45.33a1.74,1.74,0,0,1-.54-1.37,2.53,2.53,0,0,1,.28-1.18,2.16,2.16,0,0,1,.81-.91,2.22,2.22,0,0,1,1.29-.35A2,2,0,0,1,206,42a1.76,1.76,0,0,1,.53,1.37,2.46,2.46,0,0,1-.29,1.19,2.27,2.27,0,0,1-2.1,1.26A2,2,0,0,1,202.78,45.33Zm.26,5,7.11-8.71h1.67l-7.11,8.71Zm1.58-5.93a1.38,1.38,0,0,0,.27-.51,1.73,1.73,0,0,0,.1-.58.77.77,0,0,0-.13-.5.44.44,0,0,0-.33-.16.52.52,0,0,0-.41.23,1.68,1.68,0,0,0-.25.54,2,2,0,0,0-.09.55.8.8,0,0,0,.13.47.42.42,0,0,0,.32.16A.5.5,0,0,0,204.62,44.44Zm4.3,5.55a1.75,1.75,0,0,1-.54-1.38,2.65,2.65,0,0,1,.27-1.18,2.34,2.34,0,0,1,.81-.9,2.28,2.28,0,0,1,1.3-.35,2,2,0,0,1,1.37.47,1.72,1.72,0,0,1,.54,1.36,2.65,2.65,0,0,1-.29,1.2,2.38,2.38,0,0,1-.82.91,2.34,2.34,0,0,1-1.28.35A2,2,0,0,1,208.92,50Zm1.84-.9a1.58,1.58,0,0,0,.27-.5,1.83,1.83,0,0,0,.1-.59.74.74,0,0,0-.13-.49.41.41,0,0,0-.33-.16.48.48,0,0,0-.41.23,1.7,1.7,0,0,0-.26.54,2.35,2.35,0,0,0-.08.55.73.73,0,0,0,.13.47.4.4,0,0,0,.32.16A.51.51,0,0,0,210.76,49.09Z"/><path class="cls-4" d="M44,39.46H26.92l5.31-24.94H49.31l-1.09,5.1H37.48l-1,5H46.52l-1,4.66H35.44l-1.09,5.1H45.09Z"/><path class="cls-4" d="M47.51,39.46l5.31-24.94h5l7.36,15.25h.12L68.5,14.52h6.1L69.29,39.46h-5L57,24.22h-.12L53.61,39.46Z"/><path class="cls-4" d="M73.53,31.36h6.08v.27a2.57,2.57,0,0,0,2.72,2.82c1.67,0,2.71-1.07,3.18-3.22l3.56-16.71h6.35L91.68,32c-1.07,5.08-4.34,7.87-9.47,7.87s-8.72-3-8.72-7.51A8.87,8.87,0,0,1,73.53,31.36Z"/><path class="cls-4" d="M95.93,29.21c0-8.92,6-15.12,13.63-15.12,7.07,0,11.18,4.52,11.18,10.68,0,8.94-6,15.13-13.66,15.13C100.15,39.9,95.93,35.38,95.93,29.21Zm6.45-.36c0,3.58,1.9,5.89,4.88,5.89,3.92,0,7-4.28,7-9.61,0-3.61-1.92-5.89-4.89-5.89C105.49,19.24,102.38,23.54,102.38,28.85Z"/><path class="cls-4" d="M125.39,39.46l1.82-8.61-5.12-16.33h6.57l2.85,10.4h.12l7.09-10.4h6.92L133.55,31l-1.8,8.5Z"/></g></g></g></svg>