<svg xmlns="http://www.w3.org/2000/svg" viewBox="0 0 51.01 51.01"><defs><style>.cls-1{fill:#ff631a;}.cls-2{fill:#d7f1e1;}.cls-3{fill:#fff;}</style></defs><g id="Layer_2" data-name="Layer 2"><g id="Layer_1-2" data-name="Layer 1"><g id="Logo"><g id="Group_1306" data-name="Group 1306"><g id="Group_1287" data-name="Group 1287"><g id="bg"><path d="M25.51.16h0A25.35,25.35,0,0,1,50.86,25.51h0A25.35,25.35,0,0,1,25.51,50.86h0A25.36,25.36,0,0,1,.15,25.51h0A25.36,25.36,0,0,1,25.51.16Z"/><path class="cls-1" d="M25.51,50.51a25,25,0,1,1,25-25A25,25,0,0,1,25.51,50.51Zm0-49a24,24,0,1,0,24,24A24,24,0,0,0,25.51,1.5Z"/><path class="cls-1" d="M25.51,51A25.51,25.51,0,1,1,51,25.51,25.53,25.53,0,0,1,25.51,51ZM1,25.51a24.51,24.51,0,0,0,49,0,24.51,24.51,0,0,1-49,0ZM25.51,2A23.51,23.51,0,1,0,49,25.51,23.53,23.53,0,0,0,25.51,2Z"/></g><g id="moon"><g id="moon-2" data-name="moon"><path class="cls-2" d="M26.89,37.44a11.79,11.79,0,0,0,10.79-6.81,9.17,9.17,0,0,1-3.89.77,9.5,9.5,0,0,1-9.49-9.49,9.84,9.84,0,0,1,5.11-8.48,17.66,17.66,0,0,0-2.52-.14,12.08,12.08,0,1,0,0,24.15Z"/></g><g id="Ellipse_117" data-name="Ellipse 117"><path class="cls-3" d="M39.87,18.75v0Z"/></g></g><g id="Ellipse_141" data-name="Ellipse 141"><circle class="cls-3" cx="36.92" cy="16.63" r="1.27"/></g><g id="Ellipse_142" data-name="Ellipse 142"><circle class="cls-3" cx="31.85" cy="28.46" r="0.42"/></g><g id="Ellipse_143" data-name="Ellipse 143"><circle class="cls-3" cx="29.31" cy="20.01" r="0.42"/></g><g id="Ellipse_144" data-name="Ellipse 144"><circle class="cls-3" cx="41.99" cy="25.93" r="0.42"/></g></g></g></g></g></g></svg>