<svg width="232" height="232" viewBox="0 0 232 232" fill="none" xmlns="http://www.w3.org/2000/svg">
<path d="M116 12V23.5556V12ZM116 208.444V220V208.444ZM220 116H208.444H220ZM23.5556 116H12H23.5556ZM189.54 189.54L181.37 181.37L189.54 189.54ZM50.6302 50.6302L42.4604 42.4604L50.6302 50.6302ZM189.54 42.4604L181.37 50.6302L189.54 42.4604ZM50.6302 181.37L42.4604 189.54L50.6302 181.37ZM162.222 116C162.222 128.259 157.352 140.016 148.684 148.684C140.016 157.352 128.259 162.222 116 162.222C103.741 162.222 91.9843 157.352 83.3159 148.684C74.6476 140.016 69.7778 128.259 69.7778 116C69.7778 103.741 74.6476 91.9843 83.3159 83.3159C91.9843 74.6476 103.741 69.7778 116 69.7778C128.259 69.7778 140.016 74.6476 148.684 83.3159C157.352 91.9843 162.222 103.741 162.222 116V116Z" stroke="white" stroke-width="23.1111" stroke-linecap="round" stroke-linejoin="round"/>
</svg>
