<svg width="20" height="15" fill="none" xmlns="http://www.w3.org/2000/svg"><path d="M15.076 8.788a.156.156 0 00-.11-.266H1.355c-.713 0-1.109-.249-1.289-.804-.26-.805.259-1.567 1.102-1.616.124-.007.247-.005.37-.005h13.44c.139 0 .21-.168.11-.266l-.002-.003c-1.231-1.227-2.461-2.455-3.696-3.68-.358-.355-.523-.762-.379-1.262a1.216 1.216 0 011.95-.602c.095.078.18.17.268.256l5.786 5.782c.648.648.651 1.318.009 1.96-1.975 1.976-3.957 3.944-5.924 5.928-.808.815-1.897.28-2.107-.558-.12-.476.061-.85.391-1.18 1.226-1.22 2.449-2.442 3.672-3.664a.547.547 0 00.02-.02h.001z" fill="#E43462"/></svg>