<svg width="14" height="14" fill="none" xmlns="http://www.w3.org/2000/svg"><path d="M0 7.411v-.82l.026-.145c.043-.301.069-.606.133-.903.365-1.681 1.229-3.058 2.598-4.096C4.46.157 6.379-.27 8.47.165c1.674.35 3.036 1.226 4.077 2.58 1.124 1.461 1.592 3.125 1.416 4.957a6.764 6.764 0 01-1.708 3.913c-1.084 1.226-2.435 1.99-4.049 2.277-.263.046-.53.073-.795.108h-.82c-.036-.007-.07-.02-.106-.022a6.665 6.665 0 01-3.055-.963C1.617 11.903.5 10.301.109 8.205.06 7.943.035 7.676 0 7.411z" fill="#EAFAEE"/><path d="M7.502 7.5v1.945c-.002.332-.207.556-.506.554-.293-.001-.497-.225-.498-.55V7.5h-.136c-.622 0-1.244.002-1.866-.001a.493.493 0 01-.492-.437.492.492 0 01.335-.53.938.938 0 01.26-.033c.576-.003 1.152-.002 1.727-.002h.171V4.543c.001-.272.148-.471.381-.528.328-.079.619.155.622.511.005.538.002 1.076.002 1.615v.358h1.931c.275 0 .461.12.537.336.116.332-.122.663-.486.665-.61.004-1.219 0-1.828.002h-.154v-.003z" fill="#40A88D"/></svg>