<svg width="553" height="553" viewBox="0 0 553 553" fill="none" xmlns="http://www.w3.org/2000/svg">
<path d="M276.5 28V55.6111V28ZM276.5 497.389V525V497.389ZM525 276.5H497.389H525ZM55.6111 276.5H28H55.6111ZM452.217 452.217L432.696 432.696L452.217 452.217ZM120.304 120.304L100.783 100.783L120.304 120.304ZM452.217 100.783L432.696 120.304L452.217 100.783ZM120.304 432.696L100.783 452.217L120.304 432.696ZM386.944 276.5C386.944 305.792 375.308 333.884 354.596 354.596C333.884 375.308 305.792 386.944 276.5 386.944C247.208 386.944 219.116 375.308 198.404 354.596C177.692 333.884 166.056 305.792 166.056 276.5C166.056 247.208 177.692 219.116 198.404 198.404C219.116 177.692 247.208 166.056 276.5 166.056C305.792 166.056 333.884 177.692 354.596 198.404C375.308 219.116 386.944 247.208 386.944 276.5V276.5Z" stroke="#307DF6" stroke-width="55.22" stroke-linecap="round" stroke-linejoin="round"/>
</svg>
