<svg height="704" viewBox="0 0 734 704" width="734" xmlns="http://www.w3.org/2000/svg"><g fill="none" fill-rule="evenodd"><g fill="#e6e6e6"><path d="m24.00598 435.25729c-.113812-.133402-.1945668-.29176-.23571-.46222-31.25133754-129.081133 12.9868545-264.749574 114.321404-350.5976616 101.334549-85.84808722 242.428601-107.1884723 364.618656-55.1483384.569129.2419725.834343.8995006.59237 1.46863s-.899501.8343425-1.46863.59237c-122.57744-52.12209-261.66967-30.88013-362.99711 55.43669-100.70888 85.7899-143.96522 219.02863-112.88886 347.722.121816.504154-.1184275 1.025996-.5806582 1.26127-.4622307.235273-1.0255266.122429-1.3614618-.27274z"/><path d="m228.72709 675.58305c-.337156-.394441-.359149-.968845-.053142-1.387912s.859838-.572998 1.338202-.371938c122.11668 51.14186 260.53951 29.6175 361.25009-56.17381 102.28063-87.12884 145.71506-221.06163 113.3536-349.53157-.097559-.388065.019324-.7987.306619-1.07722.287296-.278521.701357-.382615 1.08621-.27307.384854.109544.682032.416085.779591.80415 15.704438 62.427452 13.713125 127.994965-5.75077 189.35434-20.152371 63.233886-57.690408 119.521552-108.32288 162.42837-100.818363 85.927112-241.418885 107.790293-363.569 56.53446-.161629-.067575-.305024-.17235-.41852-.3058z"/><path d="m202.84573 695.46104c-.192767-.226022-.287772-.519405-.264085-.81552.023686-.296114.16412-.570665.390365-.76317l529.04423-450.67179c.470823-.401072 1.177633-.344528 1.578705.126295s.344528 1.177633-.126295 1.578705l-529.04423 450.67177c-.226023.192766-.519408.287769-.815522.26408-.296114-.023688-.570665-.164124-.763168-.39037z"/><path d="m.26752 457.65421c-.1926743-.226064-.28761828-.519428-.26393246-.815515s.1640599-.570626.39022246-.763185l529.04424-450.67179c.470891-.40031541 1.177062-.34346578 1.57785.12702322.400788.47048901.344647 1.1767173-.12544 1.57797678l-529.04422 450.67177c-.2260641.192682-.51943164.287631-.81552333.263947s-.5706358-.16406-.76319667-.390227z"/><path d="m202.84573 695.46104c-.192767-.226022-.287772-.519405-.264085-.81552.023686-.296114.16412-.570665.390365-.76317l529.04423-450.67179c.470823-.401072 1.177633-.344528 1.578705.126295s.344528 1.177633-.126295 1.578705l-529.04423 450.67177c-.226023.192766-.519408.287769-.815522.26408-.296114-.023688-.570665-.164124-.763168-.39037z"/></g><path d="m618.53203 186.75117h-204.75664v-1.07216c0-1.73862-1.40943-3.14805-3.14805-3.14805h-86.54852c-1.7386.000028-3.148 1.40945-3.148 3.14805v1.07216h-205.60073c-7.649269 0-13.850229 6.200951-13.85024 13.85022v280.37487c0 7.649276 6.200964 13.85024 13.85024 13.85024h503.20188c7.649306 0 13.850294-6.200984 13.8503-13.85029v-280.37482c-.000011-7.649269-6.200971-13.85022-13.85024-13.85022z" fill="#3f3d56"/><path d="m126.34481 216.22825c-.715475.001014-1.295152.580915-1.29589 1.29639v265.94189c.000783.715377.580513 1.295112 1.29589 1.2959h481.17237c.715454-.000607 1.295293-.580446 1.2959-1.2959v-265.94189c-.000568-.71555-.58035-1.295552-1.2959-1.29639z" fill="#6c63ff"/><circle cx="366.50903" cy="198.56776" fill="#6c63ff" r="5.06425"/><path d="m641.60388 475.93015h-48.18822v-4.97648c0-.27332-.30819-.49487-.6884-.49487h-16.52167c-.38021 0-.68841.22155-.68841.49487v4.97648h-10.326v-4.97648c0-.27332-.3082-.49487-.68841-.49487h-16.52171c-.38021 0-.6884.22155-.6884.49487v4.97648h-10.32605v-4.97648c0-.27332-.30819-.49487-.6884-.49487h-16.52167c-.38021 0-.68841.22155-.68841.49487v4.97648h-10.326v-4.97648c0-.27332-.3082-.49487-.68841-.49487h-16.52171c-.38021 0-.6884.22155-.6884.49487v4.97648h-10.32605v-4.97648c0-.27332-.30819-.49487-.6884-.49487h-16.52167c-.38021 0-.68841.22155-.68841.49487v4.97648h-10.326v-4.97648c0-.27332-.3082-.49487-.68841-.49487h-16.52171c-.38021 0-.6884.22155-.6884.49487v4.97648h-10.32605v-4.97648c0-.27332-.30819-.49487-.6884-.49487h-129.41977c-.38021 0-.68841.22155-.68841.49487v4.97648h-10.326v-4.97648c0-.27332-.3082-.49487-.68841-.49487h-16.52171c-.38021 0-.6884.22155-.6884.49487v4.97648h-10.32605v-4.97648c0-.27332-.30819-.49487-.6884-.49487h-16.52167c-.38021 0-.68841.22155-.68841.49487v4.97648h-10.326v-4.97648c0-.27332-.3082-.49487-.68841-.49487h-16.52171c-.38021 0-.6884.22155-.6884.49487v4.97648h-10.32605v-4.97648c0-.27332-.30819-.49487-.6884-.49487h-16.52167c-.38021 0-.68841.22155-.68841.49487v4.97648h-10.326v-4.97648c0-.27332-.3082-.49487-.68841-.49487h-16.52171c-.38021 0-.6884.22155-.6884.49487v4.97648h-10.32607v-4.97648c0-.27332-.30819-.49487-.6884-.49487h-16.52165c-.38021 0-.68841.22155-.68841.49487v4.97648h-31.66654c-9.12466 0-16.52167 5.31743-16.52167 11.8768v5.37044c0 6.55934 7.397 11.87677 16.52167 11.87677h549.34564c9.12466 0 16.52167-5.31743 16.52167-11.87677v-5.37041c0-6.5594-7.39701-11.87683-16.52167-11.87683z" fill="#3f3d56"/><g fill="#f2f2f2"><path d="m310.90932 328.11433h-142.22375c-.618487 0-1.11987-.501383-1.11987-1.11987s.501383-1.11987 1.11987-1.11987h142.22375c.618487 0 1.11987.501383 1.11987 1.11987s-.501383 1.11987-1.11987 1.11987z"/><path d="m310.90932 352.75152h-142.22375c-.618487 0-1.11987-.501383-1.11987-1.11987s.501383-1.11987 1.11987-1.11987h142.22375c.618487 0 1.11987.501383 1.11987 1.11987s-.501383 1.11987-1.11987 1.11987z"/><path d="m310.90932 377.38871h-142.22375c-.40089.001198-.771841-.211987-.972633-.558969-.200791-.346983-.200791-.774829 0-1.121812.200792-.346982.571743-.560167.972633-.558969h142.22375c.40089-.001198.771841.211987.972633.558969.200791.346983.200791.774829 0 1.121812-.200792.346982-.571743.560167-.972633.558969z"/></g><rect fill="#fff" height="175.81992" rx="3.35962" width="182.53915" x="373.06222" y="263.72169"/><path d="m409.61424 356.7711c1.243836-21.992899 18.223708-39.85358 40.12566-42.207127 21.901953-2.353548 42.288898 11.491757 48.17702 32.718267.54524-.01956 1.09-.04147 1.64-.04147 1.876414.017891 3.737997.334604 5.51476.93823 22.387 7.35112 16.49195 40.7751-7.07106 40.7751h-57.90898c-8.275523.0234-16.203939-3.323312-21.959602-9.269501s-8.842494-13.979355-8.549698-22.249729c.00902-.22092.019653-.442177.0319-.66377z" fill="#5633d1"/><path d="m462.397 356.07v-18.421h-9.919v18.421h-7.919l6.439 11.154 6.44 11.153 6.439-11.153 6.439-11.154z" fill="#fff"/></g></svg>