<svg height="60.1" viewBox="0 0 60.1 60.1" width="60.1" xmlns="http://www.w3.org/2000/svg"><g fill="#c6cbd2"><path d="m53.2 0h-46.3a6.914 6.914 0 0 0 -6.9 6.9v31.3a1.9 1.9 0 1 0 3.8 0v-25.7h52.5v25.6a1.9 1.9 0 0 0 3.8 0v-31.2a7.046 7.046 0 0 0 -6.9-6.9zm-49.4 8.7v-1.8a3.116 3.116 0 0 1 3.1-3.1h46.3a3.116 3.116 0 0 1 3.1 3.1v1.9h-52.5z"/><path d="m20.7 25a1.9 1.9 0 0 0 -1.9 1.9v4l-2.8-4.9a1.951 1.951 0 0 0 -2.1-.9 1.921 1.921 0 0 0 -1.4 1.8v11.3a1.9 1.9 0 1 0 3.8 0v-4l2.7 4.8a1.9 1.9 0 0 0 1.6 1 .9.9 0 0 0 .5-.1 1.921 1.921 0 0 0 1.4-1.8v-11.2a1.817 1.817 0 0 0 -1.8-1.9z"/><path d="m30.7 25h-1.3a4.439 4.439 0 0 0 -4.4 4.4v6.3a4.439 4.439 0 0 0 4.4 4.4h1.3a4.439 4.439 0 0 0 4.4-4.4v-6.3a4.507 4.507 0 0 0 -4.4-4.4zm.6 10.6a.645.645 0 0 1 -.6.6h-1.3a.645.645 0 0 1 -.6-.6v-6.3a.645.645 0 0 1 .6-.6h1.3a.645.645 0 0 1 .6.6z"/><path d="m45.7 25h-6.3a1.9 1.9 0 1 0 0 3.8h1.2v9.4a1.9 1.9 0 0 0 3.8 0v-9.4h1.3a1.9 1.9 0 0 0 1.9-1.9 1.965 1.965 0 0 0 -1.9-1.9z"/><path d="m55.7 45h-3.8a1.9 1.9 0 0 0 -1.9 1.9v11.2a1.9 1.9 0 0 0 1.9 1.9h3.8a4.439 4.439 0 0 0 4.4-4.4v-6.3a4.489 4.489 0 0 0 -4.4-4.3zm.6 10.6a.645.645 0 0 1 -.6.6h-1.9v-7.5h1.9a.645.645 0 0 1 .6.6z"/><path d="m4.4 48.7h3.7a1.9 1.9 0 0 0 0-3.8h-3.7a4.6 4.6 0 0 0 -4.4 4.5v8.7a1.9 1.9 0 1 0 3.8 0v-3.1h4.4a1.9 1.9 0 0 0 1.9-1.9 1.839 1.839 0 0 0 -1.9-1.9h-4.4v-1.9a.645.645 0 0 1 .6-.6z"/><path d="m45.7 45a1.9 1.9 0 0 0 -1.9 1.9v4l-2.8-4.9a1.951 1.951 0 0 0 -2.1-.9 1.921 1.921 0 0 0 -1.4 1.8v11.2a1.9 1.9 0 1 0 3.8 0v-4l2.7 4.9a1.9 1.9 0 0 0 1.6 1 .9.9 0 0 0 .5-.1 1.921 1.921 0 0 0 1.4-1.8v-11.2a1.817 1.817 0 0 0 -1.8-1.9z"/><path d="m18.2 45h-1.2a4.439 4.439 0 0 0 -4.4 4.4v6.3a4.439 4.439 0 0 0 4.4 4.4h1.2a4.439 4.439 0 0 0 4.4-4.4v-6.3a4.507 4.507 0 0 0 -4.4-4.4zm.6 10.6a.645.645 0 0 1 -.6.6h-1.2a.645.645 0 0 1 -.6-.6v-6.3a.645.645 0 0 1 .6-.6h1.2a.645.645 0 0 1 .6.6z"/><path d="m33.2 45a1.9 1.9 0 0 0 -1.9 1.9v8.7a.645.645 0 0 1 -.6.6h-1.3a.645.645 0 0 1 -.6-.6v-8.7a1.9 1.9 0 1 0 -3.8 0v8.7a4.439 4.439 0 0 0 4.4 4.4h1.3a4.439 4.439 0 0 0 4.4-4.4v-8.7a1.965 1.965 0 0 0 -1.9-1.9z"/></g></svg>