<svg width="149" height="194" viewBox="0 0 149 194" fill="none" xmlns="http://www.w3.org/2000/svg">
<path fill-rule="evenodd" clip-rule="evenodd" d="M10.9188 68.619C9.38413 33.1745 36.4218 0 74.4971 0C112.574 0 139.611 33.176 138.075 68.6214C143.721 71.8774 147.762 77.6382 148.749 84.7465C149.933 93.162 146.88 100.765 140.493 105.599C135.718 109.212 129.604 110.915 122.975 110.982L100.726 153.12L81.3663 189.788C79.9954 192.384 77.3601 194 74.4971 194C71.6341 194 68.9988 192.384 67.628 189.788L48.2689 153.122L26.0144 110.972C19.3977 110.895 13.2925 109.194 8.52265 105.588C2.13809 100.762 -0.921061 93.1717 0.24307 84.7578C1.22951 77.6284 5.27345 71.8713 10.9188 68.619ZM26.5051 66.1788C29.5817 66.7819 32.2848 67.8764 34.5225 68.8704C35.7129 69.3992 36.7545 69.8828 37.6931 70.3185C40.4773 71.611 42.3545 72.4825 44.5212 72.8662L44.5559 72.8725C48.2843 73.5506 50.5454 72.9913 54.7205 71.7855C54.8275 71.7545 54.9352 71.7234 55.0438 71.692C59.5328 70.394 65.362 68.7083 74.4971 68.7083C83.6385 68.7083 89.4756 70.3907 93.9724 71.687C94.0756 71.7167 94.1781 71.7463 94.2799 71.7756C98.4691 72.9816 100.733 73.5412 104.449 72.8706C106.612 72.4803 108.484 71.6117 111.246 70.3302C112.199 69.8879 113.258 69.3964 114.473 68.8584C116.713 67.8655 119.415 66.7755 122.49 66.1754C122.734 40.0715 102.508 16.1667 74.4971 16.1667C46.4848 16.1667 26.2592 40.0736 26.5051 66.1788ZM44.9599 113.093L56.0282 134.056L65.5975 120.216C60.3168 119.056 55.3909 117.116 51.1395 115.441C50.6286 115.24 50.1275 115.043 49.6368 114.851C47.9893 114.208 46.4363 113.617 44.9599 113.093ZM83.3991 120.216C88.6806 119.055 93.6077 117.115 97.8603 115.44C98.3705 115.24 98.8713 115.043 99.3611 114.851C101.007 114.209 102.558 113.619 104.033 113.096L92.9669 134.055L83.3991 120.216ZM84.6401 149.825L74.4979 135.157L64.355 149.827L74.4971 169.036L84.6401 149.825ZM118.757 84.5864C115.707 86.0188 111.451 88.0186 107.142 88.7962C99.7797 90.1243 94.6445 88.6637 90.0789 87.3485C89.9889 87.3226 89.8997 87.2968 89.8097 87.2709C85.6823 86.0818 81.4938 84.875 74.4971 84.875C67.5138 84.875 63.3386 86.0818 59.2182 87.2733C59.1235 87.3 59.0289 87.3275 58.9342 87.355C54.366 88.6742 49.2323 90.1348 41.8586 88.797C37.5204 88.0251 33.2526 86.018 30.2001 84.5824C29.5147 84.2599 28.8906 83.9664 28.3407 83.7223C24.7505 82.1275 22.6196 81.632 20.617 81.9917C17.8751 82.4848 16.0987 84.4142 15.7347 87.0454C15.3632 89.7299 16.1861 91.3481 17.7637 92.5412C19.6883 93.9954 23.5534 95.3114 29.6924 94.6227C39.2121 93.5541 48.1252 96.9766 55.1718 99.7289C55.4056 99.8211 55.6378 99.9116 55.8682 100.001C63.2337 102.881 68.8674 105.083 74.4971 105.083C80.1284 105.083 85.766 102.88 93.1351 99.9997C93.3644 99.91 93.5944 99.8203 93.8268 99.7297C100.874 96.9774 109.787 93.5541 119.302 94.6227L119.32 94.6243C125.46 95.3284 129.323 94.0116 131.245 92.5574C132.82 91.3651 133.64 89.7452 133.263 87.0672L133.26 87.047C132.897 84.4248 131.112 82.4839 128.378 81.9917C126.368 81.6303 124.228 82.1259 120.642 83.7158C120.086 83.9624 119.453 84.2599 118.757 84.5864Z" fill="white" fill-opacity="0.9"/>
</svg>
